<svg xmlns="http://www.w3.org/2000/svg" width="627.315" height="415.499" viewBox="0 0 627.315 415.499">
  <g id="Grupo_364" data-name="Grupo 364" transform="translate(-62 -126.239)">
    <g id="Grupo_363" data-name="Grupo 363" transform="translate(62 126.239)">
      <path id="Trazado_25" data-name="Trazado 25" d="M122.262,508.342c15.593-33.017,12.669-31.367,5.36-61.184S107.157,338.4,144.189,273.6s84.3-73.091,107.2-65.294,41.418,20.465,80.887.974S469.2,132.287,541.314,165.909s42.226,89.8,67.564,113.68,84.952,30.065,103.468,88.05S700.164,553.03,630.485,560.712l-486.3,3.3s-37.52-22.649-21.927-55.666Z" transform="translate(-104.871 -148.51)" fill="#feefdc"/>
      <g id="Grupo_3" data-name="Grupo 3" transform="translate(513.812 184.7)">
        <g id="Grupo_2" data-name="Grupo 2" transform="translate(0 0)">
          <g id="Grupo_1" data-name="Grupo 1">
            <path id="Trazado_26" data-name="Trazado 26" d="M2198.155,914.995c6.987-.006,23.355.219,37.482,2.216a9.973,9.973,0,0,0,11.38-9.478,15.242,15.242,0,0,0-2.684-8.574c-7.928-12.726-23.568-1.882-23.775,4.34,0,0-2.5-9.527-11.792-8.407S2201.96,910,2201.96,910s-2.933-.795-5.071.494A2.427,2.427,0,0,0,2198.155,914.995Z" transform="translate(-2195.719 -893.244)" fill="#fff"/>
          </g>
        </g>
      </g>
      <g id="Grupo_10" data-name="Grupo 10" transform="translate(509.777 346.202)">
        <g id="Grupo_7" data-name="Grupo 7" transform="translate(0 16.418)">
          <g id="Grupo_4" data-name="Grupo 4">
            <path id="Trazado_27" data-name="Trazado 27" d="M2178.959,1682.3c2.065-2.038,18.178-30.561,29.332-15.892,0,0,18.23-41.359,41.314-33.26,0,0,14.719,8.4,4.029,29.338,0,0,35.633-2.241,35.168,19.814Z" transform="translate(-2178.959 -1632.098)" fill="#258d8c"/>
          </g>
          <g id="Grupo_5" data-name="Grupo 5" transform="translate(54.955 1.658)">
            <path id="Trazado_28" data-name="Trazado 28" d="M2407.353,1643.192a.181.181,0,0,1-.142-.068.177.177,0,0,1,.031-.251c.18-.14,4.451-3.425,8.355-3.888a.182.182,0,0,1,.2.156.18.18,0,0,1-.158.2c-3.8.449-8.132,3.779-8.175,3.813A.183.183,0,0,1,2407.353,1643.192Z" transform="translate(-2407.172 -1638.984)"/>
          </g>
          <g id="Grupo_6" data-name="Grupo 6" transform="translate(54.955 4.196)">
            <path id="Trazado_29" data-name="Trazado 29" d="M2407.353,1653.266a.179.179,0,0,1-.14-.066.176.176,0,0,1,.026-.251,21.756,21.756,0,0,1,6.69-3.417.183.183,0,0,1,.226.122.178.178,0,0,1-.123.221,21.345,21.345,0,0,0-6.564,3.352A.184.184,0,0,1,2407.353,1653.266Z" transform="translate(-2407.172 -1649.524)"/>
          </g>
        </g>
        <g id="Grupo_8" data-name="Grupo 8" transform="translate(80.387 0)">
          <ellipse id="Elipse_1" data-name="Elipse 1" cx="11.582" cy="6.22" rx="11.582" ry="6.22" transform="matrix(0.648, -0.762, 0.762, 0.648, 0, 17.652)" fill="#258d8c"/>
        </g>
        <g id="Grupo_9" data-name="Grupo 9" transform="translate(89.695 22.908)">
          <ellipse id="Elipse_2" data-name="Elipse 2" cx="6.857" cy="3.682" rx="6.857" ry="3.682" transform="matrix(0.648, -0.762, 0.762, 0.648, 0, 10.45)" fill="#258d8c"/>
        </g>
      </g>
      <g id="Grupo_13" data-name="Grupo 13" transform="translate(228.105 91.018)">
        <g id="Grupo_12" data-name="Grupo 12" transform="translate(0)">
          <g id="Grupo_11" data-name="Grupo 11">
            <path id="Trazado_30" data-name="Trazado 30" d="M1014.369,535.857c14.84-1.177,51.048-3.526,72.91-.5a3.47,3.47,0,0,0,3.121-5.689c-1.51-1.735-4.177-3.178-8.846-3.34,0,0,4.115-20.3-15.5-22.015-20.156-1.762-20.22,19.546-20.22,19.546s-11.883-11.057-17.452,2.83c0,0-12.489-5.319-18.06,1.492A4.72,4.72,0,0,0,1014.369,535.857Z" transform="translate(-1009.254 -504.211)" fill="#fff"/>
          </g>
        </g>
      </g>
      <g id="Grupo_14" data-name="Grupo 14" transform="translate(266.795 303.628)">
        <rect id="Rectángulo_7" data-name="Rectángulo 7" width="50.494" height="105.787" fill="#49263e"/>
      </g>
      <g id="Grupo_15" data-name="Grupo 15" transform="translate(138.197 184.695)">
        <path id="Trazado_31" data-name="Trazado 31" d="M941.8,1050.608V905.692a12.467,12.467,0,0,0-12.467-12.467H648.359a12.467,12.467,0,0,0-12.467,12.467v144.916Z" transform="translate(-635.892 -893.225)" fill="#49263e"/>
      </g>
      <g id="Grupo_16" data-name="Grupo 16" transform="translate(138.197 342.078)">
        <path id="Trazado_32" data-name="Trazado 32" d="M635.892,1546.792v23.223c0,4.83,3.193,8.746,7.131,8.746h291.65c3.938,0,7.131-3.916,7.131-8.746v-23.223Z" transform="translate(-635.892 -1546.792)" fill="#3a1f33"/>
      </g>
      <g id="Grupo_18" data-name="Grupo 18" transform="translate(145.358 190.988)">
        <g id="Grupo_17" data-name="Grupo 17">
          <path id="Trazado_33" data-name="Trazado 33" d="M957.22,1064.155V925.92a6.682,6.682,0,0,0-6.8-6.561h-278a6.682,6.682,0,0,0-6.8,6.561v138.236Z" transform="translate(-665.629 -919.359)" fill="#e8f2fc"/>
        </g>
      </g>
      <g id="Grupo_19" data-name="Grupo 19" transform="translate(220.723 403.381)">
        <path id="Trazado_34" data-name="Trazado 34" d="M1118.221,1810.42a7.426,7.426,0,0,0-7.5-9.052H989.205a11.2,11.2,0,0,0-10.6,9.052h139.62Z" transform="translate(-978.601 -1801.368)" fill="#3a1f33"/>
      </g>
      <g id="Grupo_20" data-name="Grupo 20" transform="translate(137.831 184.33)">
        <path id="Trazado_35" data-name="Trazado 35" d="M933.522,1081.79H641.872c-4.134,0-7.5-4.087-7.5-9.112V904.541a12.847,12.847,0,0,1,12.832-12.833v.731a12.116,12.116,0,0,0-12.1,12.1v168.138c0,4.621,3.035,8.381,6.766,8.381h291.65Z" transform="translate(-634.375 -891.708)" fill="#21111d"/>
      </g>
      <g id="Grupo_21" data-name="Grupo 21" transform="translate(424.06 348.154)">
        <rect id="Rectángulo_8" data-name="Rectángulo 8" width="11.935" height="0.731" transform="translate(0 9.697) rotate(-54.339)" fill="#21111d"/>
      </g>
      <g id="Grupo_22" data-name="Grupo 22" transform="translate(424.062 352.997)">
        <rect id="Rectángulo_9" data-name="Rectángulo 9" width="11.721" height="0.731" transform="translate(0 9.432) rotate(-53.579)" fill="#21111d"/>
      </g>
      <g id="Grupo_23" data-name="Grupo 23" transform="translate(278.613 376.131)">
        <rect id="Rectángulo_10" data-name="Rectángulo 10" width="6.982" height="0.731" transform="matrix(0.496, -0.868, 0.868, 0.496, 0, 6.062)" fill="#21111d"/>
      </g>
      <g id="Grupo_24" data-name="Grupo 24" transform="translate(279.196 380.332)">
        <rect id="Rectángulo_11" data-name="Rectángulo 11" width="6.191" height="0.731" transform="matrix(0.506, -0.863, 0.863, 0.506, 0, 5.34)" fill="#21111d"/>
      </g>
      <g id="Grupo_25" data-name="Grupo 25" transform="translate(281.309 171.93)">
        <path id="Trazado_36" data-name="Trazado 36" d="M1230.195,852.1s2.339-8.74,4.476-9.657,4.521.618,4.521.618,2.286-3.12,3.844-2.823a2.516,2.516,0,0,1,1.936,1.691s2.755.292,3.032,2.555c0,0,2.166.525,2.139,2.3,0,0,1.117.507,1.045,2.66,0,0-3.717,7.268-9.179,9.842S1230.195,852.1,1230.195,852.1Z" transform="translate(-1230.195 -840.214)" fill="#fe9f73"/>
      </g>
      <g id="Grupo_26" data-name="Grupo 26" transform="translate(197.265 265.973)">
        <path id="Trazado_37" data-name="Trazado 37" d="M915.685,1300.561l.649-61.865-1.392-7.947-33.756,12.115s1.039,26.151,3.229,57.7Z" transform="translate(-881.186 -1230.749)" fill="#3aa1c9"/>
      </g>
      <g id="Grupo_27" data-name="Grupo 27" transform="translate(172.32 260.296)">
        <path id="Trazado_38" data-name="Trazado 38" d="M811.118,1282.664l3.794-43.639,6.415-31.85-43.641,18.566s-.312,25.694.219,56.922Z" transform="translate(-777.595 -1207.175)" fill="#4cb7d8"/>
      </g>
      <g id="Grupo_28" data-name="Grupo 28" transform="translate(271.954 139.883)">
        <path id="Trazado_39" data-name="Trazado 39" d="M1191.347,707.135l35.5,59.144-2.955,2.246L1195.781,716.4Z" transform="translate(-1191.347 -707.135)" fill="#683d46"/>
      </g>
      <g id="Grupo_29" data-name="Grupo 29" transform="translate(288.858 172.464)">
        <path id="Trazado_40" data-name="Trazado 40" d="M1262.731,844.553a14.425,14.425,0,0,1,2.514-2.1c.943-.483,6.561,9.851,6.561,9.851l.813,2.554s-.719,1.35-1.185,1.295a8.121,8.121,0,0,1-1.873-1.13l-.365-1.41-.567-.158-.739-.682-.367-1.118-.787.354-1.119-.443-.517-1.042-.221-.1-3.333-5.357Z" transform="translate(-1261.546 -842.432)" fill="#fe9f73"/>
      </g>
      <g id="Grupo_30" data-name="Grupo 30" transform="translate(286.048 173.583)">
        <path id="Trazado_41" data-name="Trazado 41" d="M1255.92,854.138a3.747,3.747,0,0,1-1.66-.7,8.94,8.94,0,0,0-1.285-.68,2.935,2.935,0,0,0-1.915-.29.183.183,0,0,1-.237-.1.181.181,0,0,1,.1-.237,3.126,3.126,0,0,1,2.19.286,9.2,9.2,0,0,1,1.339.706c.928.556,1.517.875,1.913.438a1.733,1.733,0,0,0,.457-1.369c-.1-1.107-1.147-2.521-2.8-3.781a3.945,3.945,0,0,0-3.888-.751.183.183,0,0,1-.149-.334,4.3,4.3,0,0,1,4.26.794c1.754,1.341,2.824,2.813,2.937,4.038a2.086,2.086,0,0,1-.55,1.647A.921.921,0,0,1,1255.92,854.138Z" transform="translate(-1249.877 -847.08)" fill="#f07162"/>
      </g>
      <g id="Grupo_31" data-name="Grupo 31" transform="translate(292.527 173.458)">
        <path id="Trazado_42" data-name="Trazado 42" d="M1276.966,850.636a.183.183,0,0,1-.135-.305l3.374-3.709a.183.183,0,0,1,.271.246l-3.374,3.708A.184.184,0,0,1,1276.966,850.636Z" transform="translate(-1276.783 -846.562)" fill="#f07162"/>
      </g>
      <g id="Grupo_32" data-name="Grupo 32" transform="translate(294.795 178.316)">
        <path id="Trazado_43" data-name="Trazado 43" d="M1287.809,872.2a1.136,1.136,0,0,1-.727-.256,1.762,1.762,0,0,1-.841-1.874.183.183,0,0,1,.356.079,1.422,1.422,0,0,0,.688,1.493.83.83,0,0,0,.717.173c1.811-.345,4.472-4.944,4.5-4.991a.183.183,0,0,1,.317.182c-.113.2-2.773,4.791-4.748,5.168A1.405,1.405,0,0,1,1287.809,872.2Z" transform="translate(-1286.199 -866.734)" fill="#f07162"/>
      </g>
      <g id="Grupo_33" data-name="Grupo 33" transform="translate(292.206 176.013)">
        <path id="Trazado_44" data-name="Trazado 44" d="M1277.2,863.333a1.6,1.6,0,0,1-1.032-.342,2.222,2.222,0,0,1-.715-1.423.182.182,0,0,1,.364-.03,1.885,1.885,0,0,0,.581,1.17,1.357,1.357,0,0,0,1.074.241c1.329-.182,3.867-4.165,4.733-5.684a.183.183,0,1,1,.318.181c-.13.229-3.222,5.621-5,5.865A2.326,2.326,0,0,1,1277.2,863.333Z" transform="translate(-1275.45 -857.172)" fill="#f07162"/>
      </g>
      <g id="Grupo_34" data-name="Grupo 34" transform="translate(277.821 180.148)">
        <path id="Trazado_45" data-name="Trazado 45" d="M1215.714,876l1.318-1.655s11.7,3.289,15.936,12.882l-1.853,2.5S1222.558,879.044,1215.714,876Z" transform="translate(-1215.714 -874.341)" fill="#e2f2f1"/>
      </g>
      <g id="Grupo_35" data-name="Grupo 35" transform="translate(152.085 179.843)">
        <path id="Trazado_46" data-name="Trazado 46" d="M777.535,975.945l.215-.28-1.122-62.956s20.706,13.888,26.912,14.154S835.4,889.046,835.4,889.046a23.678,23.678,0,0,0-16.792-14.131l-21.187,23.226L772.6,875.624c-3.31-2.009-28.752-2.444-28.752-2.444s-28.959-.659-32.268,1.351-15.484,35.1-17.375,50.116,0,24.733,11.465,26.506l4.171.089.321,24.7s23.108,5.2,67.373,0Z" transform="translate(-693.567 -873.077)" fill="#ef3a4c"/>
      </g>
      <g id="Grupo_38" data-name="Grupo 38" transform="translate(198.175 221.839)">
        <g id="Grupo_36" data-name="Grupo 36" transform="translate(0 1.478)">
          <rect id="Rectángulo_12" data-name="Rectángulo 12" width="30.904" height="39.094" rx="11.966" fill="#49263e"/>
        </g>
        <g id="Grupo_37" data-name="Grupo 37" transform="translate(7.424)">
          <path id="Trazado_47" data-name="Trazado 47" d="M931.67,1047.474h-14.4a1.478,1.478,0,0,0-1.477,1.478h17.35A1.478,1.478,0,0,0,931.67,1047.474Z" transform="translate(-915.797 -1047.474)" fill="#e2f2f1"/>
        </g>
      </g>
      <g id="Grupo_58" data-name="Grupo 58" transform="translate(201.742 233.814)">
        <g id="Grupo_42" data-name="Grupo 42" transform="translate(0)">
          <g id="Grupo_41" data-name="Grupo 41">
            <g id="Grupo_40" data-name="Grupo 40">
              <g id="Grupo_39" data-name="Grupo 39">
                <path id="Trazado_48" data-name="Trazado 48" d="M927.854,1106.833c3.339-2.942-.16-3.436-.16-3.436,1.63-1.763,1.251-2.585.652-2.965a1.644,1.644,0,0,0-1.472-.12c-1.535.6-6.216,2.433-9.075,3.754-2.033-.144-1.385-3.571-.475-5.327.468-.9.5-2.4-1.706-.894-1.8,1.23-4.511,5.28-4.511,5.28l-11.33-1.089,1.688,15.613s12.934-.181,14.882-.195,8.475-2.236,10.446-3.952c3.577-3.114,1.327-3.272,1.327-3.272C931.533,1106.647,927.854,1106.833,927.854,1106.833Z" transform="translate(-899.777 -1097.202)" fill="#fe9f73"/>
              </g>
            </g>
          </g>
        </g>
        <g id="Grupo_47" data-name="Grupo 47" transform="translate(23.576 5.96)">
          <g id="Grupo_46" data-name="Grupo 46">
            <g id="Grupo_45" data-name="Grupo 45">
              <g id="Grupo_44" data-name="Grupo 44">
                <g id="Grupo_43" data-name="Grupo 43">
                  <path id="Trazado_49" data-name="Trazado 49" d="M997.934,1124.765a.234.234,0,0,1-.108-.45,28.776,28.776,0,0,0,4.064-2.321.234.234,0,1,1,.265.387,28.75,28.75,0,0,1-4.15,2.367A.244.244,0,0,1,997.934,1124.765Z" transform="translate(-997.681 -1121.953)" fill="#f07162"/>
                </g>
              </g>
            </g>
          </g>
        </g>
        <g id="Grupo_52" data-name="Grupo 52" transform="translate(23.808 9.397)">
          <g id="Grupo_51" data-name="Grupo 51">
            <g id="Grupo_50" data-name="Grupo 50">
              <g id="Grupo_49" data-name="Grupo 49">
                <g id="Grupo_48" data-name="Grupo 48">
                  <path id="Trazado_50" data-name="Trazado 50" d="M998.9,1138.558a.234.234,0,0,1-.078-.46,14.562,14.562,0,0,0,3.961-1.832.234.234,0,1,1,.267.384,14.732,14.732,0,0,1-4.107,1.9A.233.233,0,0,1,998.9,1138.558Z" transform="translate(-998.646 -1136.224)" fill="#f07162"/>
                </g>
              </g>
            </g>
          </g>
        </g>
        <g id="Grupo_57" data-name="Grupo 57" transform="translate(24.592 12.793)">
          <g id="Grupo_56" data-name="Grupo 56">
            <g id="Grupo_55" data-name="Grupo 55">
              <g id="Grupo_54" data-name="Grupo 54">
                <g id="Grupo_53" data-name="Grupo 53">
                  <path id="Trazado_51" data-name="Trazado 51" d="M1002.154,1152.6a.234.234,0,0,1-.085-.458,12.517,12.517,0,0,0,3.443-1.766.234.234,0,0,1,.283.373,12.767,12.767,0,0,1-3.592,1.84A.217.217,0,0,1,1002.154,1152.6Z" transform="translate(-1001.902 -1150.327)" fill="#f07162"/>
                </g>
              </g>
            </g>
          </g>
        </g>
      </g>
      <g id="Grupo_59" data-name="Grupo 59" transform="translate(174.236 209.871)">
        <path id="Trazado_52" data-name="Trazado 52" d="M786.023,1023.614l-.472-.558,4.612-3.9,1.761-21.382.729.06-1.785,21.685Z" transform="translate(-785.551 -997.774)" fill="#21111d"/>
      </g>
      <g id="Grupo_60" data-name="Grupo 60" transform="translate(151.721 231.368)">
        <path id="Trazado_53" data-name="Trazado 53" d="M708.684,1114.05l-4.219-.093c-5.628-.87-9.235-3.658-11.029-8.524-1.556-4.221-1.792-10.064-.744-18.389l.725.091c-2.138,16.968,1.088,24.531,11.135,26.1l4.146.088Z" transform="translate(-692.054 -1087.044)" fill="#21111d"/>
      </g>
      <g id="Grupo_61" data-name="Grupo 61" transform="translate(207.456 234.92)">
        <path id="Trazado_54" data-name="Trazado 54" d="M924.946,1101.795h2.276s2.423,15.582-.886,22.734H923.5S926.806,1109.911,924.946,1101.795Z" transform="translate(-923.505 -1101.795)" fill="#e2f2f1"/>
      </g>
      <g id="Grupo_62" data-name="Grupo 62" transform="translate(193.403 232.574)">
        <path id="Trazado_55" data-name="Trazado 55" d="M868.739,1092.055l11.4.73s2.3,7.269-.465,22.008c-.269,1.431-.835,3.878-.835,3.878s-11.576.923-13.393-2.838c-1.141-2.361,1.353-12.561,1.353-12.561Z" transform="translate(-865.147 -1092.055)" fill="#ef3a4c"/>
      </g>
      <g id="Grupo_63" data-name="Grupo 63" transform="translate(168.348 231.07)">
        <path id="Trazado_56" data-name="Trazado 56" d="M800.13,1114.3l-39.028-1.191.022-.731,38.44,1.173c.549-2.274,4.069-17.58,1.325-25.161l-28.958-1.855.046-.729,29.428,1.885.084.218c3.2,8.287-1.1,25.384-1.287,26.108Z" transform="translate(-761.102 -1085.808)" fill="#21111d"/>
      </g>
      <g id="Grupo_64" data-name="Grupo 64" transform="translate(226.334 180.929)">
        <path id="Trazado_57" data-name="Trazado 57" d="M1031.763,907.778l-.606-6.036-24.036-21.8c-1.761-1.6-5.186-1.619-5.22-1.619v-.731h0c.156,0,3.74.021,5.711,1.809l24.244,21.993.634,6.316Z" transform="translate(-1001.901 -877.587)" fill="#21111d"/>
      </g>
      <g id="Grupo_65" data-name="Grupo 65" transform="translate(255.67 181.289)">
        <path id="Trazado_58" data-name="Trazado 58" d="M1124.265,902.944l-.54-.492,21.32-23.372.2.032a25.025,25.025,0,0,1,17.064,14.339l-.664.305a24.417,24.417,0,0,0-16.329-13.886Z" transform="translate(-1123.725 -879.08)" fill="#21111d"/>
      </g>
      <g id="Grupo_66" data-name="Grupo 66" transform="translate(190.196 179.843)">
        <path id="Trazado_59" data-name="Trazado 59" d="M877.741,873.681c-7-.386-13.739-.5-13.739-.5s-5.607-.128-12.167-.1c0,.039,0,.076,0,.115a12.959,12.959,0,0,0,25.91.485Z" transform="translate(-851.831 -873.077)" fill="#e2f2f1"/>
      </g>
      <g id="Grupo_67" data-name="Grupo 67" transform="translate(207.742 213.413)">
        <path id="Trazado_60" data-name="Trazado 60" d="M925.335,1084.318c-.218,0-.431,0-.641,0l.007-.731c9.137.1,25.43-1.823,27.934-2.125l-.906-68.965.731-.01.914,69.62-.325.04C952.87,1082.167,935.36,1084.317,925.335,1084.318Z" transform="translate(-924.694 -1012.485)" fill="#21111d"/>
      </g>
      <g id="Grupo_68" data-name="Grupo 68" transform="translate(187.903 183.405)">
        <path id="Trazado_61" data-name="Trazado 61" d="M849.832,898.068a17.3,17.3,0,0,1-7.523-10l.7-.2a16.562,16.562,0,0,0,7.206,9.579Z" transform="translate(-842.309 -887.869)" fill="#21111d"/>
      </g>
      <g id="Grupo_107" data-name="Grupo 107" transform="translate(192.398 152.513)">
        <g id="Grupo_69" data-name="Grupo 69" transform="translate(3.807)">
          <path id="Trazado_62" data-name="Trazado 62" d="M878.815,760.773s5.163-2.2,9.747-.62a6.59,6.59,0,0,1,4.418,6.243v2.745l-14.129-6.033s-2.235,1.057-2.055.736S878.815,760.773,878.815,760.773Z" transform="translate(-876.784 -759.584)" fill="#fe9f73"/>
        </g>
        <g id="Grupo_103" data-name="Grupo 103" transform="translate(0 1.007)">
          <g id="Grupo_72" data-name="Grupo 72" transform="translate(4.076 1.046)">
            <g id="Grupo_71" data-name="Grupo 71">
              <g id="Grupo_70" data-name="Grupo 70">
                <path id="Trazado_63" data-name="Trazado 63" d="M893.828,772.558v11.576s.172,4.136-3.447,4.653l.676,5.518a4.307,4.307,0,0,1-2.945,4.639,11.3,11.3,0,0,1-3.417.528,6.91,6.91,0,0,1-6.721-4.653c-.344-1.551.689-8.961.689-8.961l-.126-3.641.47-14.108Z" transform="translate(-877.903 -768.107)" fill="#fe9f73"/>
              </g>
            </g>
          </g>
          <g id="Grupo_75" data-name="Grupo 75" transform="translate(9.843 9.327)">
            <g id="Grupo_74" data-name="Grupo 74">
              <g id="Grupo_73" data-name="Grupo 73">
                <path id="Trazado_64" data-name="Trazado 64" d="M902.023,804.126a.17.17,0,0,1-.119-.048.172.172,0,0,1-.005-.243c.024-.025,2.394-2.449,4.56-.7a.172.172,0,1,1-.216.268c-1.919-1.546-4.007.583-4.1.674A.171.171,0,0,1,902.023,804.126Z" transform="translate(-901.851 -802.499)" fill="#21111d"/>
              </g>
            </g>
          </g>
          <g id="Grupo_78" data-name="Grupo 78" transform="translate(16.947 8.748)">
            <g id="Grupo_77" data-name="Grupo 77">
              <g id="Grupo_76" data-name="Grupo 76">
                <path id="Trazado_65" data-name="Trazado 65" d="M931.523,801.265a.173.173,0,0,1-.113-.3c.069-.06,1.713-1.466,2.752-.575a.172.172,0,1,1-.224.261c-.814-.7-2.288.561-2.3.574A.171.171,0,0,1,931.523,801.265Z" transform="translate(-931.351 -800.093)" fill="#21111d"/>
              </g>
            </g>
          </g>
          <g id="Grupo_81" data-name="Grupo 81" transform="translate(12.466 11.134)">
            <g id="Grupo_80" data-name="Grupo 80">
              <g id="Grupo_79" data-name="Grupo 79">
                <path id="Trazado_66" data-name="Trazado 66" d="M913.778,810.518a.517.517,0,1,1-.517-.517A.517.517,0,0,1,913.778,810.518Z" transform="translate(-912.744 -810.001)"/>
              </g>
            </g>
          </g>
          <g id="Grupo_84" data-name="Grupo 84" transform="translate(17.962 10.617)">
            <g id="Grupo_83" data-name="Grupo 83">
              <g id="Grupo_82" data-name="Grupo 82">
                <path id="Trazado_67" data-name="Trazado 67" d="M936.6,808.371a.517.517,0,1,1-.517-.517A.517.517,0,0,1,936.6,808.371Z" transform="translate(-935.565 -807.854)"/>
              </g>
            </g>
          </g>
          <g id="Grupo_87" data-name="Grupo 87">
            <g id="Grupo_86" data-name="Grupo 86">
              <g id="Grupo_85" data-name="Grupo 85">
                <path id="Trazado_68" data-name="Trazado 68" d="M866.812,763.766s-4.378-.21-5.488,3.619.782,5.854.82,7-.736,8.839,4.668,8.264l1.459-12.714-1.88-5.062Z" transform="translate(-860.975 -763.764)" fill="#21111d"/>
              </g>
            </g>
          </g>
          <g id="Grupo_90" data-name="Grupo 90" transform="translate(1.742 7.085)">
            <g id="Grupo_89" data-name="Grupo 89" transform="translate(0 0)">
              <g id="Grupo_88" data-name="Grupo 88">
                <circle id="Elipse_3" data-name="Elipse 3" cx="3.102" cy="3.102" r="3.102" transform="translate(0 4.387) rotate(-45)" fill="#fe9f73"/>
              </g>
            </g>
          </g>
          <g id="Grupo_93" data-name="Grupo 93" transform="translate(4.623 9.929)">
            <g id="Grupo_92" data-name="Grupo 92">
              <g id="Grupo_91" data-name="Grupo 91">
                <path id="Trazado_69" data-name="Trazado 69" d="M881.449,808.439a1.292,1.292,0,0,1-1.217-.969,1.214,1.214,0,0,1,.489-1.417,1.458,1.458,0,0,1,1.629.057,1.4,1.4,0,0,0-.626-.764,1.946,1.946,0,0,0-1.377-.089.086.086,0,0,1-.054-.164,2.087,2.087,0,0,1,1.513.1,1.676,1.676,0,0,1,.791,1.13l.075.3-.219-.218a1.35,1.35,0,0,0-1.641-.207,1.054,1.054,0,0,0-.415,1.222,1.112,1.112,0,0,0,1.05.845h.018a.086.086,0,0,1,0,.173Z" transform="translate(-880.173 -804.995)" fill="#f07162"/>
              </g>
            </g>
          </g>
          <g id="Grupo_96" data-name="Grupo 96" transform="translate(8.164 18.211)">
            <g id="Grupo_95" data-name="Grupo 95">
              <g id="Grupo_94" data-name="Grupo 94">
                <path id="Trazado_70" data-name="Trazado 70" d="M894.88,839.391s.243,6.922,8.888,7.583l-.5-4.07S897.662,844.031,894.88,839.391Z" transform="translate(-894.88 -839.391)" fill="#f07162"/>
              </g>
            </g>
          </g>
          <g id="Grupo_98" data-name="Grupo 98" transform="translate(7.044 6.168)">
            <g id="Grupo_97" data-name="Grupo 97">
              <path id="Trazado_71" data-name="Trazado 71" d="M903.783,798.335s1.127,8.286-4.375,8.58c-7.873.421-8.635-4.072-9.1-7.748l-.079-7.588.253-2.2h0a3.932,3.932,0,0,1,.971,2.256c.163,1.819.566,6.722,1.02,6.939C893.112,798.877,902.557,797.537,903.783,798.335Z" transform="translate(-890.226 -789.377)" fill="#21111d"/>
            </g>
          </g>
          <g id="Grupo_101" data-name="Grupo 101" transform="translate(15.238 10.236)">
            <g id="Grupo_100" data-name="Grupo 100">
              <g id="Grupo_99" data-name="Grupo 99">
                <path id="Trazado_72" data-name="Trazado 72" d="M924.339,811.174a.086.086,0,0,1-.027-.168l1.727-.571-.546-4.065a.086.086,0,0,1,.171-.023l.565,4.207-1.863.616A.077.077,0,0,1,924.339,811.174Z" transform="translate(-924.253 -806.272)" fill="#f07162"/>
              </g>
            </g>
          </g>
          <g id="Grupo_102" data-name="Grupo 102" transform="translate(4.708 13.923)">
            <path id="Trazado_73" data-name="Trazado 73" d="M880.526,827.418l.6-5.835,1.449.16v5.843Z" transform="translate(-880.526 -821.583)" fill="#fe9f73"/>
          </g>
        </g>
        <g id="Grupo_104" data-name="Grupo 104" transform="translate(3.027 0.789)">
          <path id="Trazado_74" data-name="Trazado 74" d="M877.164,762.964s-1.015,2.422.65,6.461-4.27-1.507-4.27-1.507S873.956,762.007,877.164,762.964Z" transform="translate(-873.544 -762.859)" fill="#21111d"/>
        </g>
        <g id="Grupo_106" data-name="Grupo 106" transform="translate(13.224 17.628)">
          <g id="Grupo_105" data-name="Grupo 105">
            <path id="Trazado_75" data-name="Trazado 75" d="M915.986,833.076a2.783,2.783,0,0,0,3.314.938.12.12,0,0,0-.1-.218,2.5,2.5,0,0,1-3.024-.865l-.069-.092a.122.122,0,0,0-.167-.026.12.12,0,0,0-.026.167C915.938,833.012,915.962,833.044,915.986,833.076Z" transform="translate(-915.891 -832.79)" fill="#f07162"/>
          </g>
        </g>
      </g>
      <g id="Grupo_108" data-name="Grupo 108" transform="translate(296.451 183.457)">
        <path id="Trazado_76" data-name="Trazado 76" d="M1295.586,890.941a.178.178,0,0,1-.031,0,3.031,3.031,0,0,1-2.122-1.166,2.136,2.136,0,0,1-.322-1.544.183.183,0,0,1,.357.079,1.789,1.789,0,0,0,.272,1.266,2.693,2.693,0,0,0,1.876,1,.183.183,0,0,1-.03.363Z" transform="translate(-1293.078 -888.086)" fill="#f07162"/>
      </g>
      <g id="Grupo_109" data-name="Grupo 109" transform="translate(145.357 190.623)">
        <path id="Trazado_77" data-name="Trazado 77" d="M957.585,1063.369H665.628v-.731H956.854V924.768a6.324,6.324,0,0,0-6.432-6.2v-.731a7.056,7.056,0,0,1,7.163,6.926Z" transform="translate(-665.628 -917.842)" fill="#21111d"/>
      </g>
      <g id="Grupo_110" data-name="Grupo 110" transform="translate(194.196 149.508)">
        <path id="Trazado_78" data-name="Trazado 78" d="M873.939,757.463s13.173-.781,13.985-3.867a2.34,2.34,0,0,0-2.286-3.168s.581-4.385-3.4-3.086-11.351,1.129-13.424,4.817S873.939,757.463,873.939,757.463Z" transform="translate(-868.44 -747.102)" fill="#21111d"/>
      </g>
      <g id="Grupo_111" data-name="Grupo 111" transform="translate(244.924 276.43)">
        <path id="Trazado_79" data-name="Trazado 79" d="M1082.953,1289.087l-3.175,2.323a1.1,1.1,0,0,0,1.3,1.77l2.536-1.855,2.23,7.609a1.1,1.1,0,0,0,1.052.789,1.081,1.081,0,0,0,.309-.044,1.1,1.1,0,0,0,.744-1.36l-2.453-8.369,3.367-2.463,3.985,5.2a1.1,1.1,0,1,0,1.741-1.334l-3.955-5.163,2.14-1.565a1.1,1.1,0,1,0-1.295-1.769l-2.179,1.593-7.4-9.658a1.555,1.555,0,0,0-2.727,1.383Zm4.571-3.343-2.689,1.967-2.6-8.871Z" transform="translate(-1079.103 -1274.177)" fill="#f75553"/>
      </g>
      <g id="Grupo_113" data-name="Grupo 113" transform="translate(259.464 259.578)">
        <g id="Grupo_112" data-name="Grupo 112">
          <path id="Trazado_80" data-name="Trazado 80" d="M1140.576,1214.093c.773,0,.979-.445,1.662-1.921.089-.194.176-.379.262-.56l1.771,6.067-.069.19a1.113,1.113,0,0,0-.083.224c-.439,1.184-.9,2.322-1.351,3.338a1.1,1.1,0,1,0,2,.889c.12-.269.3-.674.508-1.183l2.58,8.842a1.1,1.1,0,0,0,2.1-.615l-.231-.791c2.035-1.044,7.029-3.946,8.459-7.9a6.209,6.209,0,0,0-.284-5.019,4.978,4.978,0,0,0-3.737-3.005c-2.278-.355-4.767.929-6.672,2.285,1.073-3.674,1.731-7.672.357-9.609a2.322,2.322,0,0,0-2.147-1.12,4.2,4.2,0,0,0-2.7,1.993,1.1,1.1,0,0,0-1.752,1.152l.338,1.157c-.462.869-.909,1.8-1.345,2.746-.178.385-.377.814-.477,1a1.1,1.1,0,0,0,.8,1.842Zm13.261.721a2.872,2.872,0,0,1,2.106,1.807,4.038,4.038,0,0,1,.19,3.3c-1.082,3-5.051,5.441-7.025,6.5l-2.353-8.063C1148.46,1216.813,1151.6,1214.46,1153.837,1214.814Zm-7.949-8.423a.839.839,0,0,1,.183.2c.784,1.105.338,4.094-.6,7.383l-1.519-5.2C1145.029,1206.889,1145.6,1206.445,1145.888,1206.391Z" transform="translate(-1139.48 -1204.195)" fill="#258d8c"/>
        </g>
      </g>
      <g id="Grupo_114" data-name="Grupo 114" transform="translate(284.621 258.191)">
        <path id="Trazado_81" data-name="Trazado 81" d="M1252.792,1222.248a19.929,19.929,0,0,0,4.076-.465,1.1,1.1,0,0,0-.45-2.146c-5.121,1.075-8.372.087-9.66-2.938-2.13-5,1.467-13.492,4.006-15.224a3.736,3.736,0,0,1,3.043-.759,5.292,5.292,0,0,1,2.831,2.512,1.1,1.1,0,0,0,1.96-.984,7.47,7.47,0,0,0-4.229-3.648,5.806,5.806,0,0,0-4.841,1.067c-3.531,2.408-7.23,12.16-4.788,17.895C1245.712,1219.839,1247.9,1222.248,1252.792,1222.248Z" transform="translate(-1243.952 -1198.433)" fill="#397fa1"/>
      </g>
      <g id="Grupo_115" data-name="Grupo 115" transform="translate(241.489 297.846)">
        <path id="Trazado_82" data-name="Trazado 82" d="M1100.2,1363.3l-23.293,15.989-.951,9.508-4.792-6.744-5.876,4.216a1.1,1.1,0,1,0,1.278,1.781l4.086-2.932,6.9,9.715,1.432-14.314,22.454-15.413a1.1,1.1,0,1,0-1.241-1.808Z" transform="translate(-1064.835 -1363.112)" fill="#61a3c5"/>
      </g>
      <g id="Grupo_116" data-name="Grupo 116" transform="translate(287.066 304.361)">
        <path id="Trazado_83" data-name="Trazado 83" d="M1276.463,1390.85a1.1,1.1,0,0,0-1.428-.6l-20.249,8.229a1.1,1.1,0,1,0,.826,2.031l20.249-8.229A1.1,1.1,0,0,0,1276.463,1390.85Z" transform="translate(-1254.102 -1390.167)" fill="#f75553"/>
      </g>
      <g id="Grupo_117" data-name="Grupo 117" transform="translate(294.97 302.21)">
        <circle id="Elipse_4" data-name="Elipse 4" cx="1.841" cy="1.841" r="1.841" fill="#f75553"/>
      </g>
      <g id="Grupo_118" data-name="Grupo 118" transform="translate(298.652 313.688)">
        <path id="Trazado_84" data-name="Trazado 84" d="M1304.057,1428.9a1.841,1.841,0,1,0,1.841,1.84A1.841,1.841,0,0,0,1304.057,1428.9Z" transform="translate(-1302.217 -1428.896)" fill="#f75553"/>
      </g>
      <g id="Grupo_119" data-name="Grupo 119" transform="translate(290.531 235.928)">
        <path id="Trazado_85" data-name="Trazado 85" d="M1268.828,1121.022a1.1,1.1,0,0,0,1.551-.03l5.544-5.758,5.545,5.758a1.1,1.1,0,1,0,1.579-1.521l-5.6-5.817,5.6-5.818a1.1,1.1,0,1,0-1.579-1.521l-5.545,5.758-5.544-5.758a1.1,1.1,0,1,0-1.58,1.521l5.6,5.818-5.6,5.817A1.1,1.1,0,0,0,1268.828,1121.022Z" transform="translate(-1268.492 -1105.98)" fill="#fe9f73"/>
      </g>
      <g id="Grupo_130" data-name="Grupo 130" transform="translate(6.036 200.25)">
        <g id="Grupo_120" data-name="Grupo 120" transform="translate(52.245 115.5)">
          <path id="Trazado_86" data-name="Trazado 86" d="M325.519,1437.458H310.2l-6.172,88.665h27.666Z" transform="translate(-304.025 -1437.458)" fill="#258d8c"/>
        </g>
        <g id="Grupo_121" data-name="Grupo 121" transform="translate(55.02 106.562)">
          <path id="Rectángulo_13" data-name="Rectángulo 13" d="M0,0H21.981a0,0,0,0,1,0,0V1.238A9.481,9.481,0,0,1,12.5,10.72H9.481A9.481,9.481,0,0,1,0,1.239V0A0,0,0,0,1,0,0Z" fill="#f99247"/>
        </g>
        <g id="Grupo_122" data-name="Grupo 122" transform="translate(54.654 106.562)">
          <path id="Trazado_87" data-name="Trazado 87" d="M329.825,1411.427H317.859a3.835,3.835,0,0,1-3.831-3.831v-7.255h.731v7.255a3.1,3.1,0,0,0,3.1,3.1h11.965Z" transform="translate(-314.029 -1400.342)" fill="#21111d"/>
        </g>
        <g id="Grupo_123" data-name="Grupo 123" transform="translate(0 0)">
          <circle id="Elipse_5" data-name="Elipse 5" cx="46.561" cy="46.561" r="46.561" transform="translate(0 65.848) rotate(-45)" fill="#fecc86"/>
        </g>
        <g id="Grupo_124" data-name="Grupo 124" transform="translate(9.035 9.035)">
          <circle id="Elipse_6" data-name="Elipse 6" cx="40.173" cy="40.173" r="40.173" transform="translate(0 56.813) rotate(-45)" fill="#e2f2f1"/>
        </g>
        <g id="Grupo_125" data-name="Grupo 125" transform="translate(18.921 18.921)">
          <path id="Trazado_88" data-name="Trazado 88" d="M212.567,1130.248a46.927,46.927,0,1,1,32.408-80.865l-.5.528a46.2,46.2,0,1,0-.23,67.039l.5.532A46.744,46.744,0,0,1,212.567,1130.248Z" transform="translate(-165.64 -1036.394)" fill="#21111d"/>
        </g>
        <g id="Grupo_126" data-name="Grupo 126" transform="translate(67.516 31.811)">
          <ellipse id="Elipse_7" data-name="Elipse 7" cx="7.206" cy="15.089" rx="7.206" ry="15.089" transform="matrix(0.707, -0.707, 0.707, 0.707, 0, 10.191)" fill="#f3fffe"/>
        </g>
        <g id="Grupo_127" data-name="Grupo 127" transform="translate(52.123 117.254)">
          <rect id="Rectángulo_14" data-name="Rectángulo 14" width="83.845" height="0.731" transform="translate(0 83.631) rotate(-85.91)" fill="#21111d"/>
        </g>
        <g id="Grupo_128" data-name="Grupo 128" transform="translate(40.546 31.815)">
          <path id="Trazado_89" data-name="Trazado 89" d="M256.019,1099.506l-.578-.447c.056-.072,5.7-7.274,14.289-9.121l.153.714C261.565,1092.443,256.074,1099.436,256.019,1099.506Z" transform="translate(-255.441 -1089.938)" fill="#21111d"/>
        </g>
        <g id="Grupo_129" data-name="Grupo 129" transform="translate(42.833 36.308)">
          <path id="Trazado_90" data-name="Trazado 90" d="M265.519,1118.167l-.578-.447c.056-.073,5.7-7.273,14.289-9.121l.153.714C271.065,1111.1,265.574,1118.1,265.519,1118.167Z" transform="translate(-264.941 -1108.599)" fill="#21111d"/>
        </g>
      </g>
      <g id="Grupo_143" data-name="Grupo 143" transform="translate(20.396 392.601)">
        <g id="Grupo_131" data-name="Grupo 131">
          <path id="Rectángulo_15" data-name="Rectángulo 15" d="M9.663,0h95.8a0,0,0,0,1,0,0V19.833a0,0,0,0,1,0,0H0a0,0,0,0,1,0,0V9.663A9.663,9.663,0,0,1,9.663,0Z" fill="#f99247"/>
        </g>
        <g id="Grupo_132" data-name="Grupo 132" transform="translate(8.284)">
          <rect id="Rectángulo_16" data-name="Rectángulo 16" width="1.299" height="9.917" fill="#fecc86"/>
        </g>
        <g id="Grupo_133" data-name="Grupo 133" transform="translate(21.846)">
          <rect id="Rectángulo_17" data-name="Rectángulo 17" width="1.299" height="9.917" fill="#fecc86"/>
        </g>
        <g id="Grupo_134" data-name="Grupo 134" transform="translate(15.105)">
          <rect id="Rectángulo_18" data-name="Rectángulo 18" width="1.299" height="6.021" fill="#fecc86"/>
        </g>
        <g id="Grupo_135" data-name="Grupo 135" transform="translate(36.667)">
          <rect id="Rectángulo_19" data-name="Rectángulo 19" width="1.299" height="9.917" fill="#fecc86"/>
        </g>
        <g id="Grupo_136" data-name="Grupo 136" transform="translate(29.927)">
          <rect id="Rectángulo_20" data-name="Rectángulo 20" width="1.299" height="6.021" fill="#fecc86"/>
        </g>
        <g id="Grupo_137" data-name="Grupo 137" transform="translate(51.488)">
          <rect id="Rectángulo_21" data-name="Rectángulo 21" width="1.299" height="9.917" fill="#fecc86"/>
        </g>
        <g id="Grupo_138" data-name="Grupo 138" transform="translate(44.748)">
          <rect id="Rectángulo_22" data-name="Rectángulo 22" width="1.299" height="6.021" fill="#fecc86"/>
        </g>
        <g id="Grupo_139" data-name="Grupo 139" transform="translate(66.309)">
          <rect id="Rectángulo_23" data-name="Rectángulo 23" width="1.299" height="9.917" transform="translate(0)" fill="#fecc86"/>
        </g>
        <g id="Grupo_140" data-name="Grupo 140" transform="translate(59.569)">
          <rect id="Rectángulo_24" data-name="Rectángulo 24" width="1.299" height="6.021" fill="#fecc86"/>
        </g>
        <g id="Grupo_141" data-name="Grupo 141" transform="translate(81.13)">
          <rect id="Rectángulo_25" data-name="Rectángulo 25" width="1.299" height="9.917" fill="#fecc86"/>
        </g>
        <g id="Grupo_142" data-name="Grupo 142" transform="translate(74.39)">
          <rect id="Rectángulo_26" data-name="Rectángulo 26" width="1.299" height="6.021" fill="#fecc86"/>
        </g>
      </g>
      <g id="Grupo_162" data-name="Grupo 162" transform="translate(151.281 282.147)">
        <g id="Grupo_144" data-name="Grupo 144" transform="translate(0)">
          <path id="Trazado_91" data-name="Trazado 91" d="M690.229,1297.916l.069,130.193,90.724.094Zm12.719,43.5,49.415,71.586-49.49-.052Z" transform="translate(-690.229 -1297.916)" fill="#fecc86"/>
        </g>
        <g id="Grupo_145" data-name="Grupo 145" transform="translate(2.801 12.331)">
          <rect id="Rectángulo_27" data-name="Rectángulo 27" width="1.166" height="7.063" transform="matrix(0.571, 0.821, -0.821, 0.571, 5.798, 0)" fill="#f99247"/>
        </g>
        <g id="Grupo_146" data-name="Grupo 146" transform="translate(12.244 25.784)">
          <rect id="Rectángulo_28" data-name="Rectángulo 28" width="1.166" height="6.975" transform="translate(5.726 0) rotate(55.171)" fill="#f99247"/>
        </g>
        <g id="Grupo_147" data-name="Grupo 147" transform="translate(10.62 19.349)">
          <rect id="Rectángulo_29" data-name="Rectángulo 29" width="1.166" height="3.49" transform="matrix(0.571, 0.821, -0.821, 0.571, 2.865, 0)" fill="#f99247"/>
        </g>
        <g id="Grupo_148" data-name="Grupo 148" transform="translate(21.779 39.481)">
          <rect id="Rectángulo_30" data-name="Rectángulo 30" width="1.166" height="6.987" transform="matrix(0.571, 0.821, -0.821, 0.571, 5.736, 0)" fill="#f99247"/>
        </g>
        <g id="Grupo_149" data-name="Grupo 149" transform="translate(20.155 33.045)">
          <rect id="Rectángulo_31" data-name="Rectángulo 31" width="1.166" height="3.502" transform="matrix(0.571, 0.821, -0.821, 0.571, 2.875, 0)" fill="#f99247"/>
        </g>
        <g id="Grupo_150" data-name="Grupo 150" transform="translate(31.313 53.177)">
          <rect id="Rectángulo_32" data-name="Rectángulo 32" width="1.166" height="7" transform="matrix(0.571, 0.821, -0.821, 0.571, 5.746, 0)" fill="#f99247"/>
        </g>
        <g id="Grupo_151" data-name="Grupo 151" transform="translate(29.689 46.741)">
          <rect id="Rectángulo_33" data-name="Rectángulo 33" width="1.166" height="3.514" transform="matrix(0.571, 0.821, -0.821, 0.571, 2.885, 0)" fill="#f99247"/>
        </g>
        <g id="Grupo_152" data-name="Grupo 152" transform="translate(40.848 66.873)">
          <rect id="Rectángulo_34" data-name="Rectángulo 34" width="1.166" height="7.012" transform="matrix(0.571, 0.821, -0.821, 0.571, 5.756, 0)" fill="#f99247"/>
        </g>
        <g id="Grupo_153" data-name="Grupo 153" transform="translate(39.224 60.435)">
          <rect id="Rectángulo_35" data-name="Rectángulo 35" width="1.166" height="3.532" transform="matrix(0.571, 0.821, -0.821, 0.571, 2.899, 0)" fill="#f99247"/>
        </g>
        <g id="Grupo_154" data-name="Grupo 154" transform="translate(50.382 80.57)">
          <rect id="Rectángulo_36" data-name="Rectángulo 36" width="1.166" height="7.024" transform="matrix(0.571, 0.821, -0.821, 0.571, 5.765, 0)" fill="#f99247"/>
        </g>
        <g id="Grupo_155" data-name="Grupo 155" transform="translate(48.758 74.138)">
          <rect id="Rectángulo_37" data-name="Rectángulo 37" width="1.166" height="3.532" transform="matrix(0.571, 0.821, -0.821, 0.571, 2.899, 0)" fill="#f99247"/>
        </g>
        <g id="Grupo_156" data-name="Grupo 156" transform="translate(59.917 94.266)">
          <rect id="Rectángulo_38" data-name="Rectángulo 38" width="1.166" height="7.036" transform="matrix(0.571, 0.821, -0.821, 0.571, 5.775, 0)" fill="#f99247"/>
        </g>
        <g id="Grupo_157" data-name="Grupo 157" transform="translate(58.293 87.831)">
          <rect id="Rectángulo_39" data-name="Rectángulo 39" width="1.166" height="3.55" transform="matrix(0.571, 0.821, -0.821, 0.571, 2.914, 0)" fill="#f99247"/>
        </g>
        <g id="Grupo_158" data-name="Grupo 158" transform="translate(69.452 107.963)">
          <rect id="Rectángulo_40" data-name="Rectángulo 40" width="1.166" height="7.048" transform="matrix(0.571, 0.821, -0.821, 0.571, 5.785, 0)" fill="#f99247"/>
        </g>
        <g id="Grupo_159" data-name="Grupo 159" transform="translate(67.828 101.527)">
          <rect id="Rectángulo_41" data-name="Rectángulo 41" width="1.166" height="3.562" transform="matrix(0.571, 0.821, -0.821, 0.571, 2.924, 0)" fill="#f99247"/>
        </g>
        <g id="Grupo_160" data-name="Grupo 160" transform="translate(78.986 121.657)">
          <rect id="Rectángulo_42" data-name="Rectángulo 42" width="1.166" height="7.063" transform="matrix(0.571, 0.821, -0.821, 0.571, 5.798, 0)" fill="#f99247"/>
        </g>
        <g id="Grupo_161" data-name="Grupo 161" transform="translate(77.362 115.224)">
          <rect id="Rectángulo_43" data-name="Rectángulo 43" width="1.166" height="3.575" transform="matrix(0.571, 0.821, -0.821, 0.571, 2.934, 0)" fill="#f99247"/>
        </g>
      </g>
      <g id="Grupo_171" data-name="Grupo 171" transform="translate(89.233 309.24)">
        <g id="Grupo_164" data-name="Grupo 164" transform="translate(38.148)">
          <g id="Grupo_163" data-name="Grupo 163">
            <path id="Trazado_92" data-name="Trazado 92" d="M602.239,1440.191a1.575,1.575,0,0,1-1.558-1.36c-.02-.143-2.044-14.36-9.455-25.983a1.574,1.574,0,1,1,2.655-1.692c7.793,12.22,9.837,26.64,9.92,27.248a1.574,1.574,0,0,1-1.561,1.787Z" transform="translate(-590.979 -1410.427)" fill="#21111d"/>
          </g>
        </g>
        <g id="Grupo_165" data-name="Grupo 165" transform="translate(0.362 15.425)">
          <path id="Trazado_93" data-name="Trazado 93" d="M525.667,1487.748c-9.1-16.093-23.091-14.694-30.787-10.5a38.6,38.6,0,0,1-13.666,4.487,38.594,38.594,0,0,1-13.666-4.487c-7.7-4.2-21.691-5.6-30.787,10.5s5.947,72.771,27.989,75.219h9.1c.97,0,2.216-.054,3.626-.1a.35.35,0,0,0,.265.1c1.172-.1,2.343-.139,3.477-.151,1.134.011,2.3.053,3.478.151a.35.35,0,0,0,.265-.1c1.41.045,2.656.1,3.626.1h9.1C519.719,1560.518,534.763,1503.841,525.667,1487.748Z" transform="translate(-434.062 -1474.484)" fill="#ff424d"/>
        </g>
        <g id="Grupo_166" data-name="Grupo 166" transform="translate(9.627 21.873)">
          <path id="Trazado_94" data-name="Trazado 94" d="M472.9,1511.386a.366.366,0,0,1-.334-.514c.034-.077,3.5-7.7,11.931-9.6a.365.365,0,1,1,.161.713c-8.068,1.819-11.39,9.115-11.423,9.188A.366.366,0,0,1,472.9,1511.386Z" transform="translate(-472.539 -1501.259)" fill="#21111d"/>
        </g>
        <g id="Grupo_167" data-name="Grupo 167" transform="translate(11.682 25.275)">
          <path id="Trazado_95" data-name="Trazado 95" d="M481.435,1525.515a.365.365,0,0,1-.334-.513c.034-.077,3.5-7.7,11.93-9.6a.365.365,0,1,1,.161.713c-8.067,1.82-11.39,9.114-11.423,9.188A.365.365,0,0,1,481.435,1525.515Z" transform="translate(-481.07 -1515.388)" fill="#21111d"/>
        </g>
        <g id="Grupo_168" data-name="Grupo 168" transform="translate(8.335 16.251)">
          <path id="Trazado_96" data-name="Trazado 96" d="M536.566,1477.914c-15.072,20.839-44.131,56.756-69.4,63.091,5.516,13.045,13.5,23.542,22.714,24.565h9.1c.97,0,2.216-.054,3.626-.1a.352.352,0,0,0,.265.1c1.172-.1,2.343-.139,3.478-.151,1.134.011,2.3.053,3.477.151a.352.352,0,0,0,.265-.1c1.41.045,2.656.1,3.626.1h9.1c22.041-2.449,37.085-59.126,27.989-75.219C546.709,1483.109,541.623,1479.41,536.566,1477.914Z" transform="translate(-467.171 -1477.914)" fill="#ef3a4c"/>
        </g>
        <g id="Grupo_169" data-name="Grupo 169" transform="translate(63.456 21.98)">
          <ellipse id="Elipse_8" data-name="Elipse 8" cx="4.524" cy="9.472" rx="4.524" ry="9.472" transform="translate(0 7.835) rotate(-60)" fill="#f46e6e"/>
        </g>
        <g id="Grupo_170" data-name="Grupo 170" transform="translate(0 15.064)">
          <path id="Trazado_97" data-name="Trazado 97" d="M472.7,1562.193l-9.137,0c-9.283-1.031-16.228-11.014-20.419-19.207-9.9-19.352-13.639-46.308-7.847-56.555,4.073-7.207,9.663-11.715,16.164-13.036a22.676,22.676,0,0,1,15.116,2.4,38.008,38.008,0,0,0,13.531,4.444c.051.007,4.274.518,9.8-2.685a.365.365,0,1,1,.366.632c-5.761,3.337-10.078,2.8-10.258,2.778a38.763,38.763,0,0,1-13.791-4.528c-6.939-3.785-21.128-5.864-30.294,10.355-2.721,4.814-3.381,13.832-1.811,24.742a103.452,103.452,0,0,0,9.673,31.121c5.8,11.344,12.844,18.023,19.829,18.811H472.7a.366.366,0,0,1,0,.731Z" transform="translate(-432.559 -1472.983)" fill="#21111d"/>
        </g>
      </g>
      <g id="Grupo_172" data-name="Grupo 172" transform="translate(20.085 392.235)">
        <path id="Trazado_98" data-name="Trazado 98" d="M145.771,1775.646a.365.365,0,0,1-.365-.365v-16.3a3.9,3.9,0,0,1,3.9-3.9h75.4a.365.365,0,1,1,0,.73H149.3a3.17,3.17,0,0,0-3.166,3.166v16.3A.365.365,0,0,1,145.771,1775.646Z" transform="translate(-145.406 -1755.082)" fill="#21111d"/>
      </g>
      <g id="Grupo_204" data-name="Grupo 204" transform="translate(343.454)">
        <g id="Grupo_188" data-name="Grupo 188" transform="translate(37.847 41.989)">
          <g id="Grupo_176" data-name="Grupo 176" transform="translate(0.45 0.45)">
            <g id="Grupo_173" data-name="Grupo 173">
              <path id="Trazado_99" data-name="Trazado 99" d="M1768.676,363.161a60.684,60.684,0,1,0-103.854,42.645h0s18.364,19.64,24.567,41.046c0,0,10.6,3.6,18.6,3.8,8-.2,18.606-3.8,18.606-3.8,6.2-21.406,24.566-41.046,24.566-41.046h0A60.488,60.488,0,0,0,1768.676,363.161Z" transform="translate(-1647.308 -302.477)" fill="#fecc86"/>
            </g>
            <g id="Grupo_174" data-name="Grupo 174" transform="translate(51.238 170.601)">
              <path id="Trazado_100" data-name="Trazado 100" d="M1869.516,1020.368h0a9.432,9.432,0,0,1-9.432-9.432h18.865A9.432,9.432,0,0,1,1869.516,1020.368Z" transform="translate(-1860.084 -1010.936)" fill="#4cb7d8"/>
            </g>
            <g id="Grupo_175" data-name="Grupo 175" transform="translate(40.44 139.537)">
              <path id="Rectángulo_44" data-name="Rectángulo 44" d="M0,0H40.459a0,0,0,0,1,0,0V13.417a20.23,20.23,0,0,1-20.23,20.23h0A20.23,20.23,0,0,1,0,13.417V0A0,0,0,0,1,0,0Z" fill="#4cb7d8"/>
            </g>
            <path id="Trazado_101" data-name="Trazado 101" d="M1845.635,448.624a60.4,60.4,0,0,0-10.128-33.577c-17.749,43.732-46.055,73.146-86.83,84.553,5.135,6.735,11.942,16.879,16.058,27.876h40.432v0c7.275-19.438,22.956-36.21,22.956-36.21h0A60.487,60.487,0,0,0,1845.635,448.624Z" transform="translate(-1724.266 -387.939)" fill="#fecc86" opacity="0.3" style="mix-blend-mode: multiply;isolation: isolate"/>
          </g>
          <g id="Grupo_177" data-name="Grupo 177" transform="translate(36.662 48.501)">
            <path id="Trazado_102" data-name="Trazado 102" d="M1832.075,593.741l-1.738-.474c.057-.208,5.716-21.016,9.642-42.329,6.81-36.981,2.895-44.824-.047-46.208-3.006-1.414-5.37-1.161-7.028.754q-.181.209-.347.439a11.23,11.23,0,0,1,5.512,7.9c.673,4.293-1.248,8.58-4.281,9.555-.734.236-2.148.355-3.369-1.492-1.941-2.934-2.546-10.271-.374-15.162a19.969,19.969,0,0,0-7.536-1.307h-1.751a19.978,19.978,0,0,0-7.535,1.307c2.173,4.892,1.567,12.228-.374,15.163-1.221,1.847-2.634,1.729-3.369,1.492-3.033-.975-4.954-5.261-4.281-9.554a11.231,11.231,0,0,1,5.512-7.9c-.111-.153-.227-.3-.348-.439-1.656-1.915-4.021-2.169-7.028-.755-2.94,1.384-6.856,9.227-.046,46.208,3.925,21.313,9.584,42.122,9.641,42.329l-1.737.474c-.056-.208-5.734-21.081-9.673-42.468-5.438-29.524-5.1-45.282,1.048-48.173,4.766-2.242,7.61-.582,9.156,1.206a8.4,8.4,0,0,1,.611.8,21.377,21.377,0,0,1,8.422-1.491h1.751a21.381,21.381,0,0,1,8.423,1.491,8.315,8.315,0,0,1,.61-.8c1.546-1.788,4.389-3.448,9.156-1.206,6.144,2.891,6.487,18.649,1.049,48.173C1837.808,572.66,1832.131,593.532,1832.075,593.741Zm-20.469-86.224a9.089,9.089,0,0,0-4.628,6.586c-.586,3.747,1.1,6.935,3.053,7.561.181.058.665.215,1.317-.771C1813.009,518.379,1813.448,511.744,1811.606,507.516Zm20.057,0c-1.843,4.227-1.4,10.863.257,13.375.653.986,1.136.83,1.317.771,1.949-.626,3.641-3.814,3.053-7.561A9.087,9.087,0,0,0,1831.663,507.516Z" transform="translate(-1797.687 -502.017)" fill="#f99247"/>
          </g>
          <g id="Grupo_178" data-name="Grupo 178">
            <path id="Trazado_103" data-name="Trazado 103" d="M1686.035,441.018c-.483-1.384-.7-1.89-1.179-3l-.26-.606c-7.577-17.693-21.384-32.57-21.523-32.718l-.043-.046a61.136,61.136,0,1,1,94.727-76.352l-.754.493a60.236,60.236,0,1,0-93.278,75.281l.586.594-.041.009c2.642,2.954,14.372,16.548,21.154,32.386l.26.6c.486,1.13.708,1.645,1.2,3.059Z" transform="translate(-1645.439 -300.607)" fill="#21111d"/>
          </g>
          <g id="Grupo_179" data-name="Grupo 179" transform="translate(17.89 12.165)">
            <path id="Trazado_104" data-name="Trazado 104" d="M1720.594,372.079l-.864-.251c.043-.15,4.53-15.087,19.627-20.7l.313.844C1725.009,357.424,1720.637,371.933,1720.594,372.079Z" transform="translate(-1719.73 -351.126)" fill="#21111d"/>
          </g>
          <g id="Grupo_180" data-name="Grupo 180" transform="translate(20.672 17.566)">
            <path id="Trazado_105" data-name="Trazado 105" d="M1732.149,394.505l-.864-.251c.044-.15,4.53-15.087,19.626-20.7l.314.844C1736.563,379.85,1732.192,394.359,1732.149,394.505Z" transform="translate(-1731.285 -373.552)" fill="#21111d"/>
          </g>
          <g id="Grupo_181" data-name="Grupo 181" transform="translate(40.44 139.537)">
            <path id="Trazado_106" data-name="Trazado 106" d="M1836.261,914.611h-4.411a18.5,18.5,0,0,1-18.474-18.475V880.064h40.909v.9h-40.009v15.172a17.6,17.6,0,0,0,17.574,17.575h4.411a17.473,17.473,0,0,0,12.324-5.046l.631.642A18.367,18.367,0,0,1,1836.261,914.611Z" transform="translate(-1813.376 -880.064)" fill="#21111d"/>
          </g>
          <g id="Grupo_182" data-name="Grupo 182" transform="translate(51.336 172.222)">
            <path id="Trazado_107" data-name="Trazado 107" d="M1868.668,1024.513c-8.769,0-10.034-8.506-10.047-8.593l.892-.122c.046.327,1.216,8,9.447,7.812l.02.9C1868.875,1024.511,1868.77,1024.513,1868.668,1024.513Z" transform="translate(-1858.621 -1015.797)" fill="#21111d"/>
          </g>
          <g id="Grupo_183" data-name="Grupo 183" transform="translate(102.211 78.42)">
            <path id="Trazado_108" data-name="Trazado 108" d="M2070.43,642.95l-.537-.723c8.01-5.942,9.27-15.863,9.281-15.963l.895.105C2080.058,626.472,2078.759,636.77,2070.43,642.95Z" transform="translate(-2069.894 -626.264)" fill="#21111d"/>
          </g>
          <g id="Grupo_184" data-name="Grupo 184" transform="translate(100.439 78.42)">
            <path id="Trazado_109" data-name="Trazado 109" d="M2063.068,638.626l-.537-.723c5.837-4.331,6.76-11.566,6.768-11.639l.895.105A19.3,19.3,0,0,1,2063.068,638.626Z" transform="translate(-2062.531 -626.264)" fill="#21111d"/>
          </g>
          <g id="Grupo_185" data-name="Grupo 185" transform="translate(39.022 142.703)">
            <path id="Trazado_110" data-name="Trazado 110" d="M1807.5,898.586l-.01-.9c.344,0,34.457-.446,45.261-4.473l.315.844C1842.113,898.138,1808.906,898.57,1807.5,898.586Z" transform="translate(-1807.488 -893.213)" fill="#21111d"/>
          </g>
          <g id="Grupo_186" data-name="Grupo 186" transform="translate(39.019 150.33)">
            <path id="Trazado_111" data-name="Trazado 111" d="M1807.492,930.235l-.017-.9c.373-.007,37.394-.741,44.314-4.448l.425.794C1845.1,929.49,1809.025,930.206,1807.492,930.235Z" transform="translate(-1807.476 -924.887)" fill="#21111d"/>
          </g>
          <g id="Grupo_187" data-name="Grupo 187" transform="translate(40.886 157.629)">
            <path id="Trazado_112" data-name="Trazado 112" d="M1815.236,961.049l-.008-.9c.334,0,33.555-.353,42.454-4.951l.413.8C1849.006,960.694,1816.61,961.036,1815.236,961.049Z" transform="translate(-1815.228 -955.197)" fill="#21111d"/>
          </g>
        </g>
        <g id="Grupo_190" data-name="Grupo 190" transform="translate(0 89.043)">
          <g id="Grupo_189" data-name="Grupo 189">
            <path id="Trazado_113" data-name="Trazado 113" d="M1511.1,500.537c-.038,0-.077,0-.115,0l-21.475-1.827a1.35,1.35,0,0,1,.229-2.691l21.475,1.828a1.35,1.35,0,0,1-.113,2.7Z" transform="translate(-1488.269 -496.009)" fill="#fecc86"/>
          </g>
        </g>
        <g id="Grupo_192" data-name="Grupo 192" transform="translate(14.798 44.487)">
          <g id="Grupo_191" data-name="Grupo 191">
            <path id="Trazado_114" data-name="Trazado 114" d="M1568.856,325.852a1.347,1.347,0,0,1-.761-.236l-17.787-12.171a1.35,1.35,0,1,1,1.525-2.229l17.787,12.171a1.351,1.351,0,0,1-.764,2.465Z" transform="translate(-1549.719 -310.98)" fill="#fecc86"/>
          </g>
        </g>
        <g id="Grupo_194" data-name="Grupo 194" transform="translate(56.619 12.148)">
          <g id="Grupo_193" data-name="Grupo 193">
            <path id="Trazado_115" data-name="Trazado 115" d="M1732.855,199.355a1.351,1.351,0,0,1-1.251-.843l-8.112-19.968a1.35,1.35,0,1,1,2.5-1.016l8.112,19.968a1.352,1.352,0,0,1-1.251,1.859Z" transform="translate(-1723.392 -176.686)" fill="#fecc86"/>
          </g>
        </g>
        <g id="Grupo_196" data-name="Grupo 196" transform="translate(172.708 93.341)">
          <g id="Grupo_195" data-name="Grupo 195">
            <path id="Trazado_116" data-name="Trazado 116" d="M2206.825,517.978a1.35,1.35,0,0,1-.087-2.7l21.506-1.42a1.35,1.35,0,0,1,.177,2.7l-21.506,1.42C2206.885,517.977,2206.855,517.978,2206.825,517.978Z" transform="translate(-2205.476 -513.857)" fill="#fecc86"/>
          </g>
        </g>
        <g id="Grupo_198" data-name="Grupo 198" transform="translate(162.247 48.513)">
          <g id="Grupo_197" data-name="Grupo 197">
            <path id="Trazado_117" data-name="Trazado 117" d="M2163.388,342.232a1.35,1.35,0,0,1-.742-2.479l18.015-11.832a1.35,1.35,0,0,1,1.482,2.257l-18.015,11.831A1.338,1.338,0,0,1,2163.388,342.232Z" transform="translate(-2162.037 -327.699)" fill="#fecc86"/>
          </g>
        </g>
        <g id="Grupo_200" data-name="Grupo 200" transform="translate(134.732 12.227)">
          <g id="Grupo_199" data-name="Grupo 199">
            <path id="Trazado_118" data-name="Trazado 118" d="M2049.124,199.525a1.352,1.352,0,0,1-1.241-1.883l8.488-19.811a1.351,1.351,0,0,1,2.483,1.064l-8.489,19.811A1.35,1.35,0,0,1,2049.124,199.525Z" transform="translate(-2047.773 -177.014)" fill="#fecc86"/>
          </g>
        </g>
        <g id="Grupo_202" data-name="Grupo 202" transform="translate(100.113)">
          <g id="Grupo_201" data-name="Grupo 201">
            <path id="Trazado_119" data-name="Trazado 119" d="M1905.362,150.49h-.021a1.35,1.35,0,0,1-1.33-1.371l.332-21.55a1.351,1.351,0,0,1,1.35-1.329h.021a1.351,1.351,0,0,1,1.33,1.371l-.332,21.55A1.351,1.351,0,0,1,1905.362,150.49Z" transform="translate(-1904.01 -126.239)" fill="#fecc86"/>
          </g>
        </g>
        <g id="Grupo_203" data-name="Grupo 203" transform="translate(110.869 51.783)" opacity="0.5">
          <ellipse id="Elipse_9" data-name="Elipse 9" cx="7.101" cy="14.869" rx="7.101" ry="14.869" transform="translate(0 11.939) rotate(-57.202)" fill="#f3fffe"/>
        </g>
      </g>
      <g id="Grupo_208" data-name="Grupo 208" transform="translate(42.79 97.724)">
        <g id="Grupo_205" data-name="Grupo 205" transform="translate(2.811 114.191)">
          <path id="Trazado_120" data-name="Trazado 120" d="M253.012,1011.262a.731.731,0,0,1-.7-.519c-.016-.053-.4-1.328-.924-3.584a.731.731,0,0,1,1.424-.331c.512,2.2.9,3.479.9,3.492a.732.732,0,0,1-.7.943Z" transform="translate(-251.369 -1006.263)" fill="#21111d"/>
        </g>
        <g id="Grupo_206" data-name="Grupo 206" transform="translate(0 0.149)">
          <path id="Trazado_121" data-name="Trazado 121" d="M241.815,640.871a.731.731,0,0,1-.721-.616c-.394-2.466-.709-4.969-.938-7.439a.731.731,0,0,1,1.455-.135c.226,2.438.538,4.909.926,7.344a.732.732,0,0,1-.723.846Zm-1.363-14.829a.73.73,0,0,1-.73-.714c-.018-.762-.026-1.528-.026-2.276,0-1.76.048-3.519.142-5.23a.731.731,0,1,1,1.46.08c-.093,1.684-.14,3.417-.14,5.15,0,.737.009,1.492.026,2.243a.731.731,0,0,1-.715.747Zm.845-14.863a.756.756,0,0,1-.105-.007.731.731,0,0,1-.619-.828,74.774,74.774,0,0,1,1.438-7.38.731.731,0,0,1,1.418.353,73.3,73.3,0,0,0-1.409,7.235A.731.731,0,0,1,241.3,611.179Zm66.422-7.862a.731.731,0,0,1-.137-1.449,12.145,12.145,0,0,0,6.186-3.124.731.731,0,1,1,1.007,1.06,13.583,13.583,0,0,1-6.916,3.5A.722.722,0,0,1,307.719,603.317Zm-7.372-.281a.731.731,0,0,1-.246-.043,10.521,10.521,0,0,1-5.656-5.379.731.731,0,1,1,1.3-.667,9.1,9.1,0,0,0,4.848,4.67.731.731,0,0,1-.246,1.419Zm-55.424-6.274a.731.731,0,0,1-.684-.989,58.176,58.176,0,0,1,3.1-6.873.731.731,0,1,1,1.29.688,56.754,56.754,0,0,0-3.021,6.7A.731.731,0,0,1,244.924,596.762Zm73.21-3.039a.731.731,0,0,1-.693-.963,21.728,21.728,0,0,0,1.06-6.9v-.2a.731.731,0,0,1,.727-.735h0a.731.731,0,0,1,.731.727v.2a23.188,23.188,0,0,1-1.136,7.368A.731.731,0,0,1,318.134,593.723Zm-25.047-2.845a.731.731,0,0,1-.725-.649,31.615,31.615,0,0,1-.194-3.547,37.4,37.4,0,0,1,.226-4.05.731.731,0,0,1,1.453.159,35.86,35.86,0,0,0-.218,3.891,30.139,30.139,0,0,0,.185,3.383.731.731,0,0,1-.644.809A.777.777,0,0,1,293.087,590.878Zm-41.149-7.209a.731.731,0,0,1-.589-1.162,51.647,51.647,0,0,1,4.891-5.75.731.731,0,0,1,1.041,1.027,50.167,50.167,0,0,0-4.752,5.587A.73.73,0,0,1,251.938,583.669Zm66.241-4.637a.732.732,0,0,1-.7-.535,27.743,27.743,0,0,0-2.823-6.666.731.731,0,0,1,1.259-.743,29.2,29.2,0,0,1,2.972,7.018.731.731,0,0,1-.508.9A.74.74,0,0,1,318.179,579.033Zm-23.6-2.888a.715.715,0,0,1-.2-.029.731.731,0,0,1-.5-.9,51.456,51.456,0,0,1,2.62-7.083.731.731,0,0,1,1.33.605,49.928,49.928,0,0,0-2.545,6.88A.732.732,0,0,1,294.575,576.144Zm-32.246-3.086a.731.731,0,0,1-.451-1.306,62.218,62.218,0,0,1,6.2-4.279.731.731,0,1,1,.755,1.252,60.816,60.816,0,0,0-6.056,4.178A.728.728,0,0,1,262.329,573.058Zm48.158-6.517a.729.729,0,0,1-.465-.167,21.528,21.528,0,0,0-6.228-3.553.731.731,0,0,1,.51-1.37,23,23,0,0,1,6.65,3.8.731.731,0,0,1-.466,1.295Zm-35.425-1.151a.731.731,0,0,1-.3-1.4,54.386,54.386,0,0,1,7.095-2.573.731.731,0,0,1,.4,1.406,52.922,52.922,0,0,0-6.9,2.5A.731.731,0,0,1,275.062,565.39Zm25.631-2.778a.731.731,0,0,1-.618-1.121,60.135,60.135,0,0,1,4.412-6.111.731.731,0,1,1,1.13.928,58.583,58.583,0,0,0-4.3,5.962A.73.73,0,0,1,300.693,562.611Zm-11.336-1.224a.731.731,0,0,1-.082-1.457,37.526,37.526,0,0,1,7.585-.122.731.731,0,1,1-.131,1.456,36.094,36.094,0,0,0-7.288.119A.706.706,0,0,1,289.357,561.388Zm20.77-10.259a.731.731,0,0,1-.5-1.266,49.614,49.614,0,0,1,5.918-4.7.731.731,0,1,1,.821,1.21,48.124,48.124,0,0,0-5.743,4.557A.728.728,0,0,1,310.126,551.129Zm12.262-8.383a.731.731,0,0,1-.329-1.384,68.926,68.926,0,0,1,6.911-2.993.731.731,0,0,1,.509,1.37,67.44,67.44,0,0,0-6.764,2.929A.73.73,0,0,1,322.388,542.746Zm13.937-5.22a.731.731,0,0,1-.19-1.437c2.35-.633,4.814-1.192,7.324-1.661a.731.731,0,1,1,.268,1.437c-2.473.462-4.9,1.013-7.212,1.636A.73.73,0,0,1,336.325,537.526Zm14.638-2.76a.731.731,0,0,1-.084-1.457c2.456-.286,4.971-.5,7.476-.629a.731.731,0,0,1,.076,1.46c-2.474.13-4.958.339-7.383.621A.731.731,0,0,1,350.963,534.765Z" transform="translate(-239.696 -532.678)" fill="#21111d"/>
        </g>
        <g id="Grupo_207" data-name="Grupo 207" transform="translate(125.463)">
          <path id="Trazado_122" data-name="Trazado 122" d="M765.09,533.655l-.056,0c-.013,0-1.347-.1-3.607-.133a.731.731,0,0,1,.01-1.462h.011c2.309.033,3.64.133,3.7.136a.731.731,0,0,1-.055,1.46Z" transform="translate(-760.708 -532.059)" fill="#21111d"/>
        </g>
      </g>
      <g id="Grupo_212" data-name="Grupo 212" transform="translate(178.657 85.264)">
        <g id="Grupo_209" data-name="Grupo 209" transform="translate(4.049 7.471)">
          <path id="Trazado_123" data-name="Trazado 123" d="M820.727,524.632l4.128-4.728s20.477-2.222,20.764-2.366l10.812-5.427-13.229-.767-21.624,3.112Z" transform="translate(-820.727 -511.343)" fill="#7fc6a6"/>
        </g>
        <g id="Grupo_210" data-name="Grupo 210" transform="translate(0)">
          <path id="Trazado_124" data-name="Trazado 124" d="M803.911,480.317l39.753,8.238L808.812,490.9Z" transform="translate(-803.911 -480.317)" fill="#b9edd6"/>
        </g>
        <g id="Grupo_211" data-name="Grupo 211" transform="translate(8.177 8.238)">
          <path id="Trazado_125" data-name="Trazado 125" d="M837.868,522.323l5.14,11.269,26.436-19.063Z" transform="translate(-837.868 -514.529)" fill="#b9edd6"/>
        </g>
      </g>
      <g id="Grupo_249" data-name="Grupo 249" transform="translate(403.114 310.313)">
        <g id="Grupo_214" data-name="Grupo 214" transform="translate(5.258 69.862)">
          <g id="Grupo_213" data-name="Grupo 213">
            <path id="Trazado_126" data-name="Trazado 126" d="M1757.856,1705s6.714,16.892,1.083,29.669l129.072,1.083,11.911-1.083,10.5-6.5v-9.954l-2.918-8.229-9.529-4.981Z" transform="translate(-1757.856 -1704.999)" fill="#fff"/>
          </g>
        </g>
        <g id="Grupo_216" data-name="Grupo 216" transform="translate(0.365 67.351)">
          <g id="Grupo_215" data-name="Grupo 215">
            <path id="Trazado_127" data-name="Trazado 127" d="M1878.631,1729.48h-139.45a1.645,1.645,0,1,1,0-3.289h139.45c8.418,0,15.265-6.354,15.265-14.165s-6.848-14.164-15.265-14.164h-139.45a1.645,1.645,0,1,1,0-3.289h139.45c10.231,0,18.554,7.83,18.554,17.453S1888.862,1729.48,1878.631,1729.48Z" transform="translate(-1737.537 -1694.573)" fill="#61a3c5"/>
          </g>
        </g>
        <g id="Grupo_217" data-name="Grupo 217" transform="translate(6.788 84.44)">
          <path id="Trazado_128" data-name="Trazado 128" d="M1833.008,1766.267h-68.434a.366.366,0,0,1,0-.731h68.434a.366.366,0,0,1,0,.731Z" transform="translate(-1764.208 -1765.536)" fill="#aac9f8"/>
        </g>
        <g id="Grupo_218" data-name="Grupo 218" transform="translate(84.859 84.44)">
          <path id="Trazado_129" data-name="Trazado 129" d="M2155.267,1766.267h-66.485a.366.366,0,0,1,0-.731h66.485a.366.366,0,1,1,0,.731Z" transform="translate(-2088.417 -1765.536)" fill="#aac9f8"/>
        </g>
        <g id="Grupo_219" data-name="Grupo 219" transform="translate(115.446 90.987)">
          <path id="Trazado_130" data-name="Trazado 130" d="M2249.911,1793.457H2215.8a.365.365,0,0,1,0-.731h34.112a.365.365,0,1,1,0,.731Z" transform="translate(-2215.434 -1792.726)" fill="#aac9f8"/>
        </g>
        <g id="Grupo_220" data-name="Grupo 220" transform="translate(6.788 90.987)">
          <path id="Trazado_131" data-name="Trazado 131" d="M1868.227,1793.457H1764.573a.365.365,0,1,1,0-.731h103.653a.365.365,0,1,1,0,.731Z" transform="translate(-1764.208 -1792.726)" fill="#aac9f8"/>
        </g>
        <g id="Grupo_222" data-name="Grupo 222" transform="translate(3.908 35.273)">
          <g id="Grupo_221" data-name="Grupo 221">
            <path id="Trazado_132" data-name="Trazado 132" d="M1904.811,1561.361s-6.713,16.892-1.083,29.669l-129.073,1.083-11.911-1.083-10.5-6.5v-9.954l2.918-8.23,9.529-4.981Z" transform="translate(-1752.247 -1561.361)" fill="#fff"/>
          </g>
        </g>
        <g id="Grupo_224" data-name="Grupo 224" transform="translate(1.716 32.762)">
          <g id="Grupo_223" data-name="Grupo 223">
            <path id="Trazado_133" data-name="Trazado 133" d="M1761.7,1585.841h139.45a1.645,1.645,0,0,0,0-3.289H1761.7c-8.418,0-15.266-6.354-15.266-14.164s6.848-14.165,15.266-14.165h139.45a1.645,1.645,0,0,0,0-3.289H1761.7c-10.231,0-18.555,7.83-18.555,17.454S1751.469,1585.841,1761.7,1585.841Z" transform="translate(-1743.146 -1550.934)" fill="#f75553"/>
          </g>
        </g>
        <g id="Grupo_225" data-name="Grupo 225" transform="translate(85.777 49.85)">
          <path id="Trazado_134" data-name="Trazado 134" d="M2161.028,1622.628h-68.435a.365.365,0,0,1,0-.731h68.435a.365.365,0,0,1,0,.731Z" transform="translate(-2092.228 -1621.897)" fill="#aac9f8"/>
        </g>
        <g id="Grupo_226" data-name="Grupo 226" transform="translate(9.655 49.85)">
          <path id="Trazado_135" data-name="Trazado 135" d="M1842.964,1622.628h-66.485a.365.365,0,1,1,0-.731h66.485a.365.365,0,1,1,0,.731Z" transform="translate(-1776.113 -1621.897)" fill="#aac9f8"/>
        </g>
        <g id="Grupo_227" data-name="Grupo 227" transform="translate(11.441 56.398)">
          <path id="Trazado_136" data-name="Trazado 136" d="M1818.01,1649.818H1783.9a.365.365,0,1,1,0-.73h34.112a.365.365,0,1,1,0,.73Z" transform="translate(-1783.533 -1649.087)" fill="#aac9f8"/>
        </g>
        <g id="Grupo_228" data-name="Grupo 228" transform="translate(50.558 56.398)">
          <path id="Trazado_137" data-name="Trazado 137" d="M2049.992,1649.818H1946.339a.365.365,0,1,1,0-.73h103.653a.365.365,0,1,1,0,.73Z" transform="translate(-1945.974 -1649.087)" fill="#aac9f8"/>
        </g>
        <g id="Grupo_230" data-name="Grupo 230" transform="translate(27.052 2.696)">
          <g id="Grupo_229" data-name="Grupo 229">
            <path id="Trazado_138" data-name="Trazado 138" d="M1848.361,1426.076s6.231,15.677,1,27.535l119.789,1,11.054-1,9.743-6.037v-9.239l-2.709-7.637-8.843-4.623Z" transform="translate(-1848.361 -1426.076)" fill="#fff"/>
          </g>
        </g>
        <g id="Grupo_232" data-name="Grupo 232" transform="translate(22.511 0.366)">
          <g id="Grupo_231" data-name="Grupo 231">
            <path id="Trazado_139" data-name="Trazado 139" d="M1960.448,1448.8H1831.029a1.526,1.526,0,1,1,0-3.052h129.419c7.813,0,14.168-5.9,14.168-13.146s-6.355-13.146-14.168-13.146H1831.029a1.526,1.526,0,0,1,0-3.053h129.419c9.5,0,17.22,7.267,17.22,16.2S1969.944,1448.8,1960.448,1448.8Z" transform="translate(-1829.503 -1416.4)" fill="#258d8c"/>
          </g>
        </g>
        <g id="Grupo_233" data-name="Grupo 233" transform="translate(28.445 16.199)">
          <path id="Trazado_140" data-name="Trazado 140" d="M1918.023,1482.881h-63.512a.365.365,0,0,1,0-.731h63.512a.365.365,0,0,1,0,.731Z" transform="translate(-1854.146 -1482.15)" fill="#aac9f8"/>
        </g>
        <g id="Grupo_234" data-name="Grupo 234" transform="translate(100.902 16.199)">
          <path id="Trazado_141" data-name="Trazado 141" d="M2217.106,1482.881h-61.7a.365.365,0,1,1,0-.731h61.7a.365.365,0,0,1,0,.731Z" transform="translate(-2155.037 -1482.15)" fill="#aac9f8"/>
        </g>
        <g id="Grupo_235" data-name="Grupo 235" transform="translate(129.288 22.275)">
          <path id="Trazado_142" data-name="Trazado 142" d="M2304.94,1508.114h-31.659a.365.365,0,1,1,0-.731h31.659a.365.365,0,1,1,0,.731Z" transform="translate(-2272.916 -1507.383)" fill="#aac9f8"/>
        </g>
        <g id="Grupo_236" data-name="Grupo 236" transform="translate(28.445 10.119)">
          <path id="Trazado_143" data-name="Trazado 143" d="M1987.012,1457.633h-132.5a.365.365,0,0,1,0-.731h132.5a.365.365,0,1,1,0,.731Z" transform="translate(-1854.146 -1456.902)" fill="#aac9f8"/>
        </g>
        <g id="Grupo_238" data-name="Grupo 238" transform="translate(1.351 32.397)">
          <g id="Grupo_237" data-name="Grupo 237">
            <path id="Trazado_144" data-name="Trazado 144" d="M1900,1585.055h-139.45c-10.433,0-18.92-7.994-18.92-17.819s8.488-17.819,18.92-17.819H1900a2.01,2.01,0,0,1,0,4.02.365.365,0,1,1,0-.731,1.279,1.279,0,0,0,0-2.558h-139.45c-10.03,0-18.19,7.666-18.19,17.088s8.16,17.089,18.19,17.089H1900a1.279,1.279,0,0,0,0-2.558.365.365,0,1,1,0-.731,2.01,2.01,0,0,1,0,4.02Z" transform="translate(-1741.629 -1549.417)" fill="#21111d"/>
          </g>
        </g>
        <g id="Grupo_240" data-name="Grupo 240" transform="translate(22.146)">
          <g id="Grupo_239" data-name="Grupo 239">
            <path id="Trazado_145" data-name="Trazado 145" d="M1959.3,1448.01h-129.42a1.892,1.892,0,0,1,0-3.784.366.366,0,1,1,0,.731,1.161,1.161,0,0,0,0,2.322H1959.3c9.293,0,16.855-7.1,16.855-15.833s-7.562-15.832-16.855-15.832h-129.42a1.161,1.161,0,0,0,0,2.321.365.365,0,1,1,0,.731,1.892,1.892,0,0,1,0-3.784H1959.3c9.7,0,17.585,7.431,17.585,16.564S1968.993,1448.01,1959.3,1448.01Z" transform="translate(-1827.985 -1414.882)" fill="#21111d"/>
          </g>
        </g>
        <g id="Grupo_242" data-name="Grupo 242" transform="translate(0 66.986)">
          <g id="Grupo_241" data-name="Grupo 241">
            <path id="Trazado_146" data-name="Trazado 146" d="M1877.479,1728.693H1738.03a2.01,2.01,0,0,1,0-4.02.366.366,0,1,1,0,.731,1.279,1.279,0,0,0,0,2.558h139.45c10.029,0,18.189-7.666,18.189-17.088s-8.16-17.088-18.189-17.088H1738.03a1.279,1.279,0,0,0,0,2.558.365.365,0,1,1,0,.731,2.01,2.01,0,0,1,0-4.02h139.45c10.432,0,18.92,7.993,18.92,17.819S1887.912,1728.693,1877.479,1728.693Z" transform="translate(-1736.02 -1693.055)" fill="#21111d"/>
          </g>
        </g>
        <g id="Grupo_243" data-name="Grupo 243" transform="translate(41.37 78.254)">
          <path id="Trazado_147" data-name="Trazado 147" d="M1910.466,1739.848s-4.392,10.941-1.86,19l3.568-5.515a47.458,47.458,0,0,1,3.93,5.515s2.726-17.989,8.008-19Z" transform="translate(-1907.82 -1739.848)" fill="#f75553"/>
        </g>
        <g id="Grupo_244" data-name="Grupo 244" transform="translate(123.972 43.665)">
          <path id="Trazado_148" data-name="Trazado 148" d="M2264.488,1596.21s4.392,10.941,1.861,19l-3.569-5.515a47.587,47.587,0,0,0-3.931,5.515s-2.725-17.989-8.008-19Z" transform="translate(-2250.842 -1596.21)" fill="#7fc6a6"/>
        </g>
        <g id="Grupo_245" data-name="Grupo 245" transform="translate(47.065 22.64)">
          <path id="Trazado_149" data-name="Trazado 149" d="M1934.115,1508.9s-4.393,10.941-1.861,19l3.568-5.515a47.512,47.512,0,0,1,3.93,5.515s2.725-17.989,8.008-19Z" transform="translate(-1931.467 -1508.901)" fill="#4cb7d8"/>
        </g>
        <g id="Grupo_246" data-name="Grupo 246" transform="translate(6.788 77.888)">
          <path id="Trazado_150" data-name="Trazado 150" d="M1907.343,1739.06h-142.77a.365.365,0,1,1,0-.73h142.77a.365.365,0,1,1,0,.73Z" transform="translate(-1764.208 -1738.33)" fill="#aac9f8"/>
        </g>
        <g id="Grupo_247" data-name="Grupo 247" transform="translate(11.441 43.299)">
          <path id="Trazado_151" data-name="Trazado 151" d="M1926.669,1595.423H1783.9a.366.366,0,0,1,0-.731h142.77a.366.366,0,0,1,0,.731Z" transform="translate(-1783.533 -1594.692)" fill="#aac9f8"/>
        </g>
        <g id="Grupo_248" data-name="Grupo 248" transform="translate(28.445 22.275)">
          <path id="Trazado_152" data-name="Trazado 152" d="M1950.709,1508.114h-96.2a.365.365,0,0,1,0-.731h96.2a.365.365,0,1,1,0,.731Z" transform="translate(-1854.146 -1507.383)" fill="#aac9f8"/>
        </g>
      </g>
      <g id="Grupo_255" data-name="Grupo 255" transform="translate(487.54 342.081)">
        <g id="Grupo_252" data-name="Grupo 252" transform="translate(7.261)">
          <g id="Grupo_251" data-name="Grupo 251">
            <g id="Grupo_250" data-name="Grupo 250">
              <path id="Trazado_153" data-name="Trazado 153" d="M2118.76,1561.773l5.084,2.857,6.077-5.978.164-.969-1.488-10.877-11.83,2.2Z" transform="translate(-2116.768 -1546.806)" fill="#fe9f73"/>
            </g>
          </g>
        </g>
        <g id="Grupo_254" data-name="Grupo 254" transform="translate(0 10.877)">
          <g id="Grupo_253" data-name="Grupo 253">
            <path id="Trazado_154" data-name="Trazado 154" d="M2104.553,1599.239l-16.3,2.22a2.565,2.565,0,0,1-.366-.024c-1.6-.262-1.231-1.3-1.231-1.3l7.148-5.911.053-.728a1.67,1.67,0,0,1,2.587-1.138l3,1.623s7.061.1,7.749-2l.639,5.128S2108.583,1598.665,2104.553,1599.239Z" transform="translate(-2086.616 -1591.976)" fill="#f75553"/>
          </g>
        </g>
      </g>
      <g id="Grupo_261" data-name="Grupo 261" transform="translate(466.472 342.778)">
        <g id="Grupo_258" data-name="Grupo 258" transform="translate(7.261)">
          <g id="Grupo_257" data-name="Grupo 257">
            <g id="Grupo_256" data-name="Grupo 256">
              <path id="Trazado_155" data-name="Trazado 155" d="M2031.27,1564.669l5.085,2.857,6.078-5.978.164-.969-1.487-10.877-11.829,2.2Z" transform="translate(-2029.28 -1549.7)" fill="#fe9f73"/>
            </g>
          </g>
        </g>
        <g id="Grupo_260" data-name="Grupo 260" transform="translate(0 10.877)">
          <g id="Grupo_259" data-name="Grupo 259">
            <path id="Trazado_156" data-name="Trazado 156" d="M2017.064,1602.134l-16.3,2.22a2.516,2.516,0,0,1-.365-.024c-1.6-.261-1.231-1.3-1.231-1.3l7.148-5.911.052-.728a1.671,1.671,0,0,1,2.588-1.138l3,1.623s7.061.1,7.749-2l.639,5.128S2021.095,1601.56,2017.064,1602.134Z" transform="translate(-1999.127 -1594.871)" fill="#f75553"/>
          </g>
        </g>
      </g>
      <g id="Grupo_362" data-name="Grupo 362" transform="translate(471.826 223.72)">
        <g id="Grupo_263" data-name="Grupo 263" transform="translate(41.536 57.519)">
          <g id="Grupo_262" data-name="Grupo 262">
            <path id="Trazado_157" data-name="Trazado 157" d="M2196.086,1326.289s20.337.956,25.984-.3,7.039-18.882.626-29.682-28.849,22.359-28.849,22.359Z" transform="translate(-2193.847 -1294.146)" fill="#49263e"/>
          </g>
        </g>
        <g id="Grupo_266" data-name="Grupo 266" transform="translate(0 63.004)">
          <g id="Grupo_265" data-name="Grupo 265">
            <g id="Grupo_264" data-name="Grupo 264">
              <path id="Trazado_158" data-name="Trazado 158" d="M2052.556,1317.4s-28.322,4.406-29.143,7.689-3.173,38.194-1.414,53.088c0,0,10.789.743,15.949-.509l1.256-36.315,8.517-.977,19.51-23.455Z" transform="translate(-2021.362 -1316.924)" fill="#3a1f33"/>
            </g>
          </g>
        </g>
        <g id="Grupo_269" data-name="Grupo 269" transform="translate(20.181 65.534)">
          <g id="Grupo_268" data-name="Grupo 268">
            <g id="Grupo_267" data-name="Grupo 267">
              <path id="Trazado_159" data-name="Trazado 159" d="M2129.958,1327.428s-21.93,6.188-22.751,9.471-3.157,34.439-1.4,49.333c0,0,11.6.665,16.762-.586l1.39-34.257,5,.175,12.135-21.349Z" transform="translate(-2105.168 -1327.428)" fill="#49263e"/>
            </g>
          </g>
        </g>
        <g id="Grupo_273" data-name="Grupo 273" transform="translate(29.181 23.446)">
          <g id="Grupo_272" data-name="Grupo 272">
            <g id="Grupo_271" data-name="Grupo 271">
              <g id="Grupo_270" data-name="Grupo 270">
                <path id="Trazado_160" data-name="Trazado 160" d="M2171.928,1152.954s9.693.163,11.946,1.492,12.573,18.333,14.8,25.546c0,0-5.824,5.1-13.33,5.3l-1.8-3.4,1.03,6.963-19.658,5.83a32.25,32.25,0,0,1-20.328-.661l-2.042-.753s.031-33.087,5.941-36.584C2153.75,1153.569,2165.156,1151.931,2171.928,1152.954Z" transform="translate(-2142.544 -1152.65)" fill="#febac7"/>
              </g>
            </g>
          </g>
        </g>
        <g id="Grupo_276" data-name="Grupo 276" transform="translate(46.384 4.591)">
          <g id="Grupo_275" data-name="Grupo 275">
            <g id="Grupo_274" data-name="Grupo 274">
              <path id="Trazado_161" data-name="Trazado 161" d="M2213.984,1077.25v9.367s-.132,3.166,2.639,3.562l-.518,4.224a3.3,3.3,0,0,0,2.255,3.551,8.646,8.646,0,0,0,2.615.4,5.292,5.292,0,0,0,5.146-3.562c.263-1.187-.528-6.86-.528-6.86l.1-2.788-.361-10.8Z" transform="translate(-2213.983 -1074.348)" fill="#fe9f73"/>
            </g>
          </g>
        </g>
        <g id="Grupo_279" data-name="Grupo 279" transform="translate(50.585 10.931)">
          <g id="Grupo_278" data-name="Grupo 278">
            <g id="Grupo_277" data-name="Grupo 277">
              <path id="Trazado_162" data-name="Trazado 162" d="M2234.872,1101.924a.132.132,0,0,0,.095-.223c-.017-.019-1.832-1.875-3.49-.539a.132.132,0,1,0,.166.205c1.469-1.184,3.067.446,3.135.516A.133.133,0,0,0,2234.872,1101.924Z" transform="translate(-2231.427 -1100.678)" fill="#fecc86"/>
            </g>
          </g>
        </g>
        <g id="Grupo_282" data-name="Grupo 282" transform="translate(46.525 10.487)">
          <g id="Grupo_281" data-name="Grupo 281">
            <g id="Grupo_280" data-name="Grupo 280">
              <path id="Trazado_163" data-name="Trazado 163" d="M2216.632,1099.733a.132.132,0,0,0,.086-.232c-.053-.046-1.312-1.122-2.107-.44a.132.132,0,1,0,.171.2c.624-.534,1.752.43,1.763.44A.134.134,0,0,0,2216.632,1099.733Z" transform="translate(-2214.565 -1098.836)" fill="#fecc86"/>
            </g>
          </g>
        </g>
        <g id="Grupo_285" data-name="Grupo 285" transform="translate(51.362 12.314)">
          <g id="Grupo_284" data-name="Grupo 284">
            <g id="Grupo_283" data-name="Grupo 283">
              <circle id="Elipse_10" data-name="Elipse 10" cx="0.396" cy="0.396" r="0.396"/>
            </g>
          </g>
        </g>
        <g id="Grupo_288" data-name="Grupo 288" transform="translate(47.155 11.918)">
          <g id="Grupo_287" data-name="Grupo 287">
            <g id="Grupo_286" data-name="Grupo 286">
              <circle id="Elipse_11" data-name="Elipse 11" cx="0.396" cy="0.396" r="0.396"/>
            </g>
          </g>
        </g>
        <g id="Grupo_291" data-name="Grupo 291" transform="translate(42.682)">
          <g id="Grupo_290" data-name="Grupo 290">
            <g id="Grupo_289" data-name="Grupo 289">
              <path id="Trazado_164" data-name="Trazado 164" d="M2213.288,1060.4l-2.208,3.127s-6.692,2.6-10.123-.479-2.374-4.557-1.368-6.1a4.893,4.893,0,0,1,5.764-1.018c1.584.7,2.756-1.4,4.6-.34s4.026,2.883,3.782,3.606S2213.288,1060.4,2213.288,1060.4Z" transform="translate(-2198.607 -1055.284)" fill="#fecc86"/>
            </g>
          </g>
        </g>
        <g id="Grupo_294" data-name="Grupo 294" transform="translate(56.112 3.79)">
          <g id="Grupo_293" data-name="Grupo 293">
            <g id="Grupo_292" data-name="Grupo 292">
              <path id="Trazado_165" data-name="Trazado 165" d="M2255.5,1071.026a3.932,3.932,0,0,1,3.9,2.785c.851,2.932-.293,4.468-.322,5.342s.564,6.767-3.573,6.327l-1.118-9.734,1.439-3.875Z" transform="translate(-2254.378 -1071.025)" fill="#fecc86"/>
            </g>
          </g>
        </g>
        <g id="Grupo_297" data-name="Grupo 297" transform="translate(54.631 10.198)">
          <g id="Grupo_296" data-name="Grupo 296">
            <g id="Grupo_295" data-name="Grupo 295">
              <circle id="Elipse_12" data-name="Elipse 12" cx="2.375" cy="2.375" r="2.375" fill="#fe9f73"/>
            </g>
          </g>
        </g>
        <g id="Grupo_300" data-name="Grupo 300" transform="translate(56.245 11.391)">
          <g id="Grupo_299" data-name="Grupo 299">
            <g id="Grupo_298" data-name="Grupo 298">
              <path id="Trazado_166" data-name="Trazado 166" d="M2255.867,1105.225a.989.989,0,0,0,.931-.741.929.929,0,0,0-.375-1.085,1.116,1.116,0,0,0-1.247.043,1.072,1.072,0,0,1,.479-.584,1.492,1.492,0,0,1,1.055-.068.066.066,0,0,0,.083-.042.067.067,0,0,0-.042-.083,1.6,1.6,0,0,0-1.159.077,1.285,1.285,0,0,0-.605.865l-.058.23.169-.167a1.033,1.033,0,0,1,1.256-.158.808.808,0,0,1,.317.936.851.851,0,0,1-.8.646h-.013a.066.066,0,0,0,0,.132Z" transform="translate(-2254.929 -1102.589)" fill="#f07162"/>
            </g>
          </g>
        </g>
        <g id="Grupo_303" data-name="Grupo 303" transform="translate(48.642 17.732)">
          <g id="Grupo_302" data-name="Grupo 302">
            <g id="Grupo_301" data-name="Grupo 301">
              <path id="Trazado_167" data-name="Trazado 167" d="M2230.165,1128.922s-.186,5.3-6.8,5.806l.382-3.116S2228.035,1132.474,2230.165,1128.922Z" transform="translate(-2223.36 -1128.922)" fill="#f07162"/>
            </g>
          </g>
        </g>
        <g id="Grupo_306" data-name="Grupo 306" transform="translate(70.384 46.613)">
          <g id="Grupo_305" data-name="Grupo 305">
            <g id="Grupo_304" data-name="Grupo 304">
              <path id="Trazado_168" data-name="Trazado 168" d="M2313.707,1255.355a25.053,25.053,0,0,0,13.085-6.223l-.283-.277a24.644,24.644,0,0,1-12.863,6.108Z" transform="translate(-2313.646 -1248.856)" fill="#21111d"/>
            </g>
          </g>
        </g>
        <g id="Grupo_309" data-name="Grupo 309" transform="translate(27.879 89.424)">
          <g id="Grupo_308" data-name="Grupo 308">
            <g id="Grupo_307" data-name="Grupo 307">
              <path id="Trazado_169" data-name="Trazado 169" d="M2139.877,1461.957c5.126,0,6.955-.772,7.042-.81l.113-.05,1.346-34.458-2.119,1,.169.358,1.529-.721-1.311,33.551c-.555.192-3.213.959-9.493.669l-.018.4C2138.139,1461.937,2139.051,1461.957,2139.877,1461.957Z" transform="translate(-2137.135 -1426.639)" fill="#21111d"/>
            </g>
          </g>
        </g>
        <g id="Grupo_312" data-name="Grupo 312" transform="translate(35.046 93.74)">
          <g id="Grupo_311" data-name="Grupo 311">
            <g id="Grupo_310" data-name="Grupo 310">
              <path id="Trazado_170" data-name="Trazado 170" d="M2167.278,1468.132c.548-2.111.7-22.694.71-23.57l-.4,0c0,.214-.163,21.409-.7,23.473Z" transform="translate(-2166.896 -1444.56)" fill="#21111d"/>
            </g>
          </g>
        </g>
        <g id="Grupo_315" data-name="Grupo 315" transform="translate(14.927 86.846)">
          <g id="Grupo_314" data-name="Grupo 314">
            <g id="Grupo_313" data-name="Grupo 313">
              <path id="Trazado_171" data-name="Trazado 171" d="M2083.471,1417.3a27.364,27.364,0,0,1,6.216-.969l-.012-.4a27.8,27.8,0,0,0-6.325.988Z" transform="translate(-2083.35 -1415.933)" fill="#21111d"/>
            </g>
          </g>
        </g>
        <g id="Grupo_318" data-name="Grupo 318" transform="translate(8.81 87.189)">
          <g id="Grupo_317" data-name="Grupo 317">
            <g id="Grupo_316" data-name="Grupo 316">
              <path id="Trazado_172" data-name="Trazado 172" d="M2058.335,1454.835a35.211,35.211,0,0,0,7.436-.726l.146-.035,1.27-36.72-1.621,1.305.248.308.948-.762-1.229,35.552a35.933,35.933,0,0,1-7.58.68l0,.4Z" transform="translate(-2057.948 -1417.354)" fill="#21111d"/>
            </g>
          </g>
        </g>
        <g id="Grupo_321" data-name="Grupo 321" transform="translate(14.321 92.396)">
          <g id="Grupo_320" data-name="Grupo 320">
            <g id="Grupo_319" data-name="Grupo 319">
              <path id="Trazado_173" data-name="Trazado 173" d="M2081.227,1464.66c.544-3.187.025-24.764,0-25.681l-.4.01c.005.224.54,22.455,0,25.605Z" transform="translate(-2080.834 -1438.979)" fill="#21111d"/>
            </g>
          </g>
        </g>
        <g id="Grupo_323" data-name="Grupo 323" transform="translate(39.434 65.958)">
          <g id="Grupo_322" data-name="Grupo 322">
            <path id="Trazado_174" data-name="Trazado 174" d="M2187.532,1335.722l8.287-4.552-10.7-1.981Z" transform="translate(-2185.12 -1329.189)" fill="#5089a0"/>
          </g>
        </g>
        <g id="Grupo_325" data-name="Grupo 325" transform="translate(41.536 67.702)">
          <g id="Grupo_324" data-name="Grupo 324">
            <path id="Trazado_175" data-name="Trazado 175" d="M2193.847,1340.7c.14-.088,8.011-4.269,8.011-4.269l.125.491-7.825,4.3Z" transform="translate(-2193.847 -1336.43)" fill="#4cb7d8"/>
          </g>
        </g>
        <g id="Grupo_328" data-name="Grupo 328" transform="translate(34.177 52.251)">
          <g id="Grupo_327" data-name="Grupo 327">
            <g id="Grupo_326" data-name="Grupo 326">
              <path id="Trazado_176" data-name="Trazado 176" d="M2163.391,1287.252l2.24-3.484h0c1.235-2,3.229-4.612,5.3-4.844,3.392-.379,24.046-1.227,30.6-2.036,0,0-.45-.788-.439-.786.077.017,5.358-.9,5.358-.9l3.4-1.612,3.058-1.323c.845,3.291,3.162,8.7.785,12.463-4.392,6.959-37.982,3.533-40.962,2.622l-2.743,2.972-.561.861a.88.88,0,1,1-1.475-.96l-.235.36a.881.881,0,0,1-1.218.258h0a.88.88,0,1,0-1.476-.961.88.88,0,0,1-.258-1.218l.234-.36a.88.88,0,0,1-1.218.258h0c-.016-.011-.031-.023-.047-.034l-.011-.008-.022-.018,0,0,0,0a.894.894,0,0,1-.143-.153A.956.956,0,0,1,2163.391,1287.252Z" transform="translate(-2163.29 -1272.268)" fill="#fe9f73"/>
            </g>
          </g>
        </g>
        <g id="Grupo_331" data-name="Grupo 331" transform="translate(69.949 41.543)">
          <g id="Grupo_330" data-name="Grupo 330">
            <g id="Grupo_329" data-name="Grupo 329">
              <path id="Trazado_177" data-name="Trazado 177" d="M2313.767,1242.614l.126,0c6.672-.156,13.379-5.286,13.446-5.338l.123-.1-4.231-9.376-.361.163,4.1,9.089c-.935.69-6.958,4.961-12.962,5.159l-1.816-3.7-.355.175Z" transform="translate(-2311.839 -1227.801)" fill="#21111d"/>
            </g>
          </g>
        </g>
        <g id="Grupo_334" data-name="Grupo 334" transform="translate(72.272 56.747)">
          <g id="Grupo_333" data-name="Grupo 333">
            <g id="Grupo_332" data-name="Grupo 332">
              <path id="Trazado_178" data-name="Trazado 178" d="M2323.994,1294.3a.13.13,0,0,0,.11-.025.132.132,0,0,0,.023-.185l-2.4-3.1a.132.132,0,1,0-.208.162l2.4,3.095A.131.131,0,0,0,2323.994,1294.3Z" transform="translate(-2321.487 -1290.939)" fill="#f07162"/>
            </g>
          </g>
        </g>
        <g id="Grupo_337" data-name="Grupo 337" transform="translate(35.402 64.213)">
          <g id="Grupo_336" data-name="Grupo 336">
            <g id="Grupo_335" data-name="Grupo 335">
              <path id="Trazado_179" data-name="Trazado 179" d="M2168.48,1326.523a.132.132,0,0,0,.136-.051l3.146-4.32a.132.132,0,1,0-.213-.156l-3.147,4.32a.132.132,0,0,0,.029.184A.141.141,0,0,0,2168.48,1326.523Z" transform="translate(-2168.377 -1321.942)" fill="#f07162"/>
            </g>
          </g>
        </g>
        <g id="Grupo_340" data-name="Grupo 340" transform="translate(36.784 65.343)">
          <g id="Grupo_339" data-name="Grupo 339">
            <g id="Grupo_338" data-name="Grupo 338">
              <path id="Trazado_180" data-name="Trazado 180" d="M2174.218,1331.349a.132.132,0,0,0,.139-.055l3-4.454a.132.132,0,0,0-.219-.148l-3,4.454a.131.131,0,0,0,.036.183A.115.115,0,0,0,2174.218,1331.349Z" transform="translate(-2174.115 -1326.635)" fill="#f07162"/>
            </g>
          </g>
        </g>
        <g id="Grupo_343" data-name="Grupo 343" transform="translate(38.452 66.827)">
          <g id="Grupo_342" data-name="Grupo 342">
            <g id="Grupo_341" data-name="Grupo 341">
              <path id="Trazado_181" data-name="Trazado 181" d="M2181.146,1336.833a.131.131,0,0,0,.139-.056l2.5-3.775a.132.132,0,0,0-.22-.146l-2.5,3.775a.133.133,0,0,0,.037.183A.126.126,0,0,0,2181.146,1336.833Z" transform="translate(-2181.044 -1332.797)" fill="#f07162"/>
            </g>
          </g>
        </g>
        <g id="Grupo_345" data-name="Grupo 345" transform="translate(36.302 88.953)">
          <g id="Grupo_344" data-name="Grupo 344">
            <path id="Trazado_182" data-name="Trazado 182" d="M2188.3,1425.76a160.332,160.332,0,0,1-16.182-.685l.045-.394c.135.016,13.738,1.528,34.022,0l.03.395C2199.4,1425.589,2193.346,1425.76,2188.3,1425.76Z" transform="translate(-2172.113 -1424.682)" fill="#21111d"/>
          </g>
        </g>
        <g id="Grupo_347" data-name="Grupo 347" transform="translate(37.891 36.958)">
          <g id="Grupo_346" data-name="Grupo 346" transform="translate(0 0)">
            <rect id="Rectángulo_45" data-name="Rectángulo 45" width="16.813" height="0.396" transform="translate(0 16.805) rotate(-88.19)" fill="#21111d"/>
          </g>
        </g>
        <g id="Grupo_349" data-name="Grupo 349" transform="translate(7.721 44.362)">
          <g id="Grupo_348" data-name="Grupo 348">
            <path id="Trazado_183" data-name="Trazado 183" d="M2053.426,1239.509l3.571,25.6,30.554,2.528-1.04-27.855Z" transform="translate(-2053.426 -1239.509)" fill="#4cb7d8"/>
          </g>
        </g>
        <g id="Grupo_351" data-name="Grupo 351" transform="translate(63.966 38.19)">
          <g id="Grupo_350" data-name="Grupo 350" transform="translate(0 0)">
            <rect id="Rectángulo_46" data-name="Rectángulo 46" width="0.396" height="19.716" transform="translate(0 0.158) rotate(-23.481)" fill="#21111d"/>
          </g>
        </g>
        <g id="Grupo_353" data-name="Grupo 353" transform="translate(69.753 51.592)">
          <g id="Grupo_352" data-name="Grupo 352" transform="translate(0 0)">
            <rect id="Rectángulo_47" data-name="Rectángulo 47" width="0.396" height="5.491" transform="translate(0 0.063) rotate(-9.177)" fill="#21111d"/>
          </g>
        </g>
        <g id="Grupo_356" data-name="Grupo 356" transform="translate(48.519 11.627)">
          <g id="Grupo_355" data-name="Grupo 355">
            <g id="Grupo_354" data-name="Grupo 354">
              <path id="Trazado_184" data-name="Trazado 184" d="M2224.293,1107.32a.066.066,0,0,0,.021-.129l-1.323-.437.418-3.112a.066.066,0,0,0-.056-.074.065.065,0,0,0-.074.057l-.433,3.221,1.427.472A.063.063,0,0,0,2224.293,1107.32Z" transform="translate(-2222.847 -1103.567)" fill="#f07162"/>
            </g>
          </g>
        </g>
        <g id="Grupo_359" data-name="Grupo 359" transform="translate(48.378 16.596)">
          <g id="Grupo_358" data-name="Grupo 358">
            <g id="Grupo_357" data-name="Grupo 357">
              <path id="Trazado_185" data-name="Trazado 185" d="M2224.874,1124.272c-.041-.008-2.613-.068-2.613-.068s.323,1.064,1.278,1.089A1.531,1.531,0,0,0,2224.874,1124.272Z" transform="translate(-2222.262 -1124.204)" fill="#fbfdfc"/>
            </g>
          </g>
        </g>
        <g id="Grupo_361" data-name="Grupo 361" transform="translate(22.525 55.192)">
          <g id="Grupo_360" data-name="Grupo 360">
            <circle id="Elipse_13" data-name="Elipse 13" cx="1.164" cy="1.164" r="1.164" fill="#e2f2f1"/>
          </g>
        </g>
      </g>
      <circle id="Elipse_14" data-name="Elipse 14" cx="5.544" cy="5.544" r="5.544" transform="translate(294.648 51.898)" fill="#fecc86"/>
      <circle id="Elipse_15" data-name="Elipse 15" cx="2.376" cy="2.376" r="2.376" transform="translate(312.073 67.739)" fill="#fecc86"/>
      <circle id="Elipse_16" data-name="Elipse 16" cx="5.544" cy="5.544" r="5.544" transform="translate(152.076 126.352)" fill="#fecc86"/>
      <ellipse id="Elipse_17" data-name="Elipse 17" cx="5.544" cy="4.752" rx="5.544" ry="4.752" transform="translate(104.552 203.974)" fill="#fecc86"/>
      <circle id="Elipse_18" data-name="Elipse 18" cx="2.376" cy="2.376" r="2.376" transform="translate(142.572 150.114)" fill="#fecc86"/>
      <circle id="Elipse_19" data-name="Elipse 19" cx="2.376" cy="2.376" r="2.376" transform="translate(69.702 192.885)" fill="#fecc86"/>
      <circle id="Elipse_20" data-name="Elipse 20" cx="5.544" cy="5.544" r="5.544" transform="translate(337.419 139.025)" fill="#fecc86"/>
      <ellipse id="Elipse_21" data-name="Elipse 21" cx="1.584" cy="2.376" rx="1.584" ry="2.376" transform="translate(319.994 150.114)" fill="#fecc86"/>
      <ellipse id="Elipse_22" data-name="Elipse 22" cx="3.96" cy="4.752" rx="3.96" ry="4.752" transform="translate(358.013 165.955)" fill="#fecc86"/>
      <ellipse id="Elipse_23" data-name="Elipse 23" cx="5.544" cy="6.337" rx="5.544" ry="6.337" transform="translate(573.454 216.647)" fill="#fecc86"/>
      <ellipse id="Elipse_24" data-name="Elipse 24" cx="4.752" cy="5.544" rx="4.752" ry="5.544" transform="translate(467.318 245.161)" fill="#fecc86"/>
      <circle id="Elipse_25" data-name="Elipse 25" cx="2.376" cy="2.376" r="2.376" transform="translate(556.029 229.32)" fill="#fecc86"/>
      <circle id="Elipse_26" data-name="Elipse 26" cx="2.376" cy="2.376" r="2.376" transform="translate(483.159 224.568)" fill="#fecc86"/>
      <circle id="Elipse_27" data-name="Elipse 27" cx="3.96" cy="3.96" r="3.96" transform="translate(594.048 245.161)" fill="#fecc86"/>
      <path id="Trazado_186" data-name="Trazado 186" d="M1416,983v114.142h85v-95.359L1482.7,983Z" transform="translate(-1089.949 -776.687)" fill="#fff"/>
      <path id="Trazado_187" data-name="Trazado 187" d="M1711.639,1001.818,1693.444,983v18.819Z" transform="translate(-1300.583 -776.687)" fill="#aac9f8"/>
      <path id="Trazado_188" data-name="Trazado 188" d="M1539.047,1035.926h-37.084a.963.963,0,0,1-.963-.963h0a.963.963,0,0,1,.963-.963h37.084a.963.963,0,0,1,.963.963h0A.963.963,0,0,1,1539.047,1035.926Z" transform="translate(-1154.48 -815.406)" fill="#aac9f8"/>
      <path id="Trazado_189" data-name="Trazado 189" d="M1528.161,1066.926h-47.2a.963.963,0,0,1-.963-.963h0a.963.963,0,0,1,.963-.963h47.2a.963.963,0,0,1,.963.963h0A.963.963,0,0,1,1528.161,1066.926Z" transform="translate(-1138.537 -838.941)" fill="#aac9f8"/>
      <path id="Trazado_190" data-name="Trazado 190" d="M1513.352,1140.926h-68.389a.963.963,0,0,1-.963-.963h0a.963.963,0,0,1,.963-.963h68.389a.963.963,0,0,1,.963.963h0A.963.963,0,0,1,1513.352,1140.926Z" transform="translate(-1111.206 -895.121)" fill="#aac9f8"/>
      <path id="Trazado_191" data-name="Trazado 191" d="M1513.352,1175.926h-68.389a.963.963,0,0,1-.963-.963h0a.963.963,0,0,1,.963-.963h68.389a.963.963,0,0,1,.963.963h0A.963.963,0,0,1,1513.352,1175.926Z" transform="translate(-1111.206 -921.693)" fill="#aac9f8"/>
      <path id="Trazado_192" data-name="Trazado 192" d="M1513.352,1210.927h-68.389a.963.963,0,0,1-.963-.963h0a.963.963,0,0,1,.963-.963h68.389a.963.963,0,0,1,.963.963h0A.963.963,0,0,1,1513.352,1210.927Z" transform="translate(-1111.206 -948.265)" fill="#aac9f8"/>
      <path id="Trazado_193" data-name="Trazado 193" d="M1513.352,1280.926h-68.389a.963.963,0,0,1-.963-.963h0a.963.963,0,0,1,.963-.963h68.389a.963.963,0,0,1,.963.963h0A.963.963,0,0,1,1513.352,1280.926Z" transform="translate(-1111.206 -1001.408)" fill="#aac9f8"/>
      <path id="Trazado_194" data-name="Trazado 194" d="M1513.352,1315.926h-68.389a.963.963,0,0,1-.963-.963h0a.963.963,0,0,1,.963-.963h68.389a.963.963,0,0,1,.963.963h0A.963.963,0,0,1,1513.352,1315.926Z" transform="translate(-1111.206 -1027.98)" fill="#aac9f8"/>
      <path id="Trazado_195" data-name="Trazado 195" d="M1513.352,1405.926h-68.389a.963.963,0,0,1-.963-.963h0a.963.963,0,0,1,.963-.963h68.389a.963.963,0,0,1,.963.963h0A.963.963,0,0,1,1513.352,1405.926Z" transform="translate(-1111.206 -1096.307)" fill="#aac9f8"/>
      <path id="Trazado_196" data-name="Trazado 196" d="M779.156,1426.685l.257.375.157.356h1l-91.194-130.862a.365.365,0,1,0-.6.417l90.392,129.712Z" transform="translate(-537.795 -1014.617)" fill="#21111d"/>
      <rect id="Rectángulo_48" data-name="Rectángulo 48" width="627.315" height="1.584" transform="translate(0 413.079)" fill="#21111d"/>
    </g>
  </g>
</svg>
