<svg xmlns="http://www.w3.org/2000/svg" width="197.444" height="25.97" viewBox="0 0 197.444 25.97">
  <g id="logoFooter" transform="translate(0 0.05)">
    <g id="Layer_1" data-name="Layer 1" transform="translate(0 -0.05)">
      <rect id="Rect치ngulo_1" data-name="Rect치ngulo 1" width="24.574" height="24.574" rx="5.51" transform="translate(0 1.396)" fill="#00baef"/>
      <rect id="Rect치ngulo_2" data-name="Rect치ngulo 2" width="24.574" height="24.574" rx="5.51" transform="translate(0 0.022)" fill="#addbf6"/>
      <path id="Trazado_1" data-name="Trazado 1" d="M9.361,10.875V8.581L7.155,8.564,7.12,5.922l2.2-.07V3.782L12.038,3.5l.035,2.224,2.294-.066L14.4,8.652l-2.294-.035.035,2.294Z" transform="translate(-3.985 -1.937)" fill="#fff"/>
      <path id="Trazado_2" data-name="Trazado 2" d="M33.745,10.076,33.71,7.434l5.658-.264.035,3.007Z" transform="translate(-18.867 -3.991)" fill="#fff"/>
      <path id="Trazado_3" data-name="Trazado 3" d="M16.725,23.633l-3.417,5.61,3.082,4.993-3.659,1.14-1.761-3.4L9.112,35.566,5.33,34.2l3.223-5.081L5.625,24.1l4.011-.964,1.44,3.17L12.6,23.14Z" transform="translate(-2.983 -12.929)" fill="#fff"/>
      <path id="Trazado_4" data-name="Trazado 4" d="M33.955,33.9,33.92,31.26,39.556,31l.035,2.994Zm0,3.5L33.92,34.76h5.636l.035,2.994Z" transform="translate(-18.984 -17.328)" fill="#fff"/>
      <path id="Trazado_5" data-name="Trazado 5" d="M86.884,4,85.563,25.311l-6.6.291.057-11.237-3.021,9.062H73.441l-2.294-8.1-.031,9.41-6.706.2L64.7,4.881l7.485-.291L75.145,14.2,79.073,4Z" transform="translate(-36.049 -2.217)" fill="#10014b"/>
      <path id="Trazado_6" data-name="Trazado 6" d="M134.07,24.4l-7.2.929-.881-3.28h-3.311l-.727,3.28L114.56,24.6l5.777-19.339L128.4,4.86Zm-8.595-6.794-1.1-5.05-1.074,5.05Z" transform="translate(-64.117 -2.698)" fill="#10014b"/>
      <path id="Trazado_7" data-name="Trazado 7" d="M170.175,4.93l-.145,6.164-4.324.172L164.6,25.03l-6.1.308V11.566l-4.328.233.185-6.838Z" transform="translate(-86.287 -2.737)" fill="#10014b"/>
      <path id="Trazado_8" data-name="Trazado 8" d="M205.969,4.508q-.084,1.365-.159,2.7c-.048.881-.11,1.792-.189,2.7l-6.164.317-.145,1.832h4.328l-.321,4.5-4.355.145-.136,2.1h6.164q-.084,1.6-.181,3.17c-.066,1.052-.119,2.1-.167,3.161l-12.514.291.44-20.937Z" transform="translate(-107.532 -2.491)" fill="#10014b"/>
      <path id="Trazado_9" data-name="Trazado 9" d="M247.133,4l-1.321,21.311-6.6.291.057-11.237-2.99,9.062h-2.558l-2.294-8.1-.026,9.41-6.706.2.26-20.056,7.459-.291,2.985,9.6L239.357,4Z" transform="translate(-125.755 -2.217)" fill="#10014b"/>
      <path id="Trazado_10" data-name="Trazado 10" d="M294.275,24.4l-7.2.929-.881-3.28h-3.311l-.727,3.28L274.76,24.6l5.781-19.339,8.071-.405Zm-8.6-6.794-1.105-5.05-1.074,5.05Z" transform="translate(-153.779 -2.698)" fill="#10014b"/>
      <path id="Trazado_11" data-name="Trazado 11" d="M330.4,4.93l-.145,6.164-4.324.172L324.822,25.03l-6.125.317.026-13.782L314.4,11.8l.172-6.838Z" transform="translate(-175.965 -2.737)" fill="#10014b"/>
      <path id="Trazado_12" data-name="Trazado 12" d="M360.533,5.65l-1.6,19.775-6.125.317V6.059Z" transform="translate(-197.462 -3.14)" fill="#10014b"/>
      <path id="Trazado_13" data-name="Trazado 13" d="M389.575,11.058a6.966,6.966,0,0,1-.418,2.5,6.1,6.1,0,0,1-1.154,1.9,7.044,7.044,0,0,1-1.722,1.378,10.443,10.443,0,0,1-2.113.92,13.977,13.977,0,0,1-2.329.524,19.021,19.021,0,0,1-2.365.181v6.768H372.72v-6.6q0-3.276.044-6.649.031-1.761,0-3.523c0-1.18,0-2.373.07-3.571a26.057,26.057,0,0,1,7.582-1.14,14.134,14.134,0,0,1,2.232.181,11.051,11.051,0,0,1,2.144.572,9.686,9.686,0,0,1,1.9.982,6.562,6.562,0,0,1,1.515,1.4,6.432,6.432,0,0,1,1.008,1.854A6.9,6.9,0,0,1,389.575,11.058Zm-6.446.493a1.907,1.907,0,0,0-.572-1.475,2.109,2.109,0,0,0-1.488-.528,4.477,4.477,0,0,0-.63.048,6.087,6.087,0,0,0-.616.123l-.176,4.24a2.466,2.466,0,0,0,.392.031h.392a2.893,2.893,0,0,0,1.008-.176,2.664,2.664,0,0,0,.881-.5,2.474,2.474,0,0,0,.6-.766,2.175,2.175,0,0,0,.225-1Z" transform="translate(-208.605 -2.071)" fill="#10014b"/>
      <path id="Trazado_14" data-name="Trazado 14" d="M427.273,16.989a8.148,8.148,0,0,1-.691,3.478,6.914,6.914,0,0,1-1.885,2.475,8.115,8.115,0,0,1-2.8,1.484,11.779,11.779,0,0,1-3.448.493,7.388,7.388,0,0,1-1.559-.189c-.568-.128-1.141-.282-1.722-.471s-1.14-.392-1.678-.612-1.013-.44-1.427-.616l.638-5.979a10.128,10.128,0,0,0,2.734,1.123,11.946,11.946,0,0,0,2.955.387c.185,0,.405,0,.669-.022a3.455,3.455,0,0,0,.748-.132,1.638,1.638,0,0,0,.595-.33.78.78,0,0,0,.247-.625.683.683,0,0,0-.172-.471,1.32,1.32,0,0,0-.44-.321,2.981,2.981,0,0,0-.625-.189c-.233-.04-.462-.075-.682-.092s-.44-.031-.625-.031h-.44a5.724,5.724,0,0,1-2.272-.44,5.082,5.082,0,0,1-1.761-1.211,5.434,5.434,0,0,1-1.154-1.836,6.376,6.376,0,0,1-.405-2.312,6.715,6.715,0,0,1,.687-3.082A7.2,7.2,0,0,1,414.6,5.158,8.334,8.334,0,0,1,417.243,3.7a9.52,9.52,0,0,1,3.082-.511q.713,0,1.466.053a14.3,14.3,0,0,1,2.963.515,8.947,8.947,0,0,1,1.369.515l-.564,5.878a17.35,17.35,0,0,0-2.069-.559,10.4,10.4,0,0,0-2.114-.225h-.484c-.2,0-.405.022-.625.044a5.743,5.743,0,0,0-.661.11,2.615,2.615,0,0,0-.594.2,1.093,1.093,0,0,0-.44.326.749.749,0,0,0,.1,1,1.647,1.647,0,0,0,.581.3,3.994,3.994,0,0,0,.784.15c.282.031.568.048.85.053s.542,0,.784,0a4.689,4.689,0,0,1,.594.022,5.9,5.9,0,0,1,2.1.515,4.843,4.843,0,0,1,1.572,1.118,4.649,4.649,0,0,1,.986,1.66A6.334,6.334,0,0,1,427.273,16.989Z" transform="translate(-230.624 -1.763)" fill="#10014b"/>
      <path id="Trazado_15" data-name="Trazado 15" d="M88.684.79,87.363,22.1l-6.6.291.057-11.237-3.021,9.062H75.241l-2.294-8.1-.031,9.405-6.706.207L66.5,1.662l7.463-.291,2.959,9.612L80.886.79Z" transform="translate(-37.057 -0.42)" fill="#4966b0"/>
      <path id="Trazado_16" data-name="Trazado 16" d="M135.859,21.178l-7.2.929-.881-3.28h-3.311l-.722,3.28-7.406-.727,5.786-19.325L130.2,1.65ZM127.264,14.4l-1.1-5.055L125.089,14.4Z" transform="translate(-65.114 -0.901)" fill="#4966b0"/>
      <path id="Trazado_17" data-name="Trazado 17" d="M171.991,1.71l-.145,6.164-4.328.176-1.105,13.764-6.125.317.031-13.76L155.99,8.6l.176-6.851Z" transform="translate(-87.305 -0.935)" fill="#4966b0"/>
      <path id="Trazado_18" data-name="Trazado 18" d="M207.758,1.32q-.088,1.369-.158,2.7c-.048.881-.11,1.792-.189,2.7l-6.164.321L201.1,8.867h4.328l-.321,4.5-4.355.145-.145,2.122h6.164q-.084,1.6-.181,3.17c-.066,1.052-.119,2.1-.167,3.157l-12.514.291.48-20.933Z" transform="translate(-108.528 -0.717)" fill="#4966b0"/>
      <path id="Trazado_19" data-name="Trazado 19" d="M248.933.79,247.612,22.1l-6.6.291.057-11.237-2.99,9.062h-2.554l-2.294-8.1L233.2,21.52l-6.706.207.291-20.065,7.419-.291,2.963,9.612L241.126.79Z" transform="translate(-126.763 -0.42)" fill="#4966b0"/>
      <path id="Trazado_20" data-name="Trazado 20" d="M296.064,21.178l-7.2.929-.881-3.28h-3.316l-.726,3.28-7.4-.727,5.79-19.325,8.062-.405ZM287.469,14.4l-1.105-5.055L285.289,14.4Z" transform="translate(-154.775 -0.901)" fill="#4966b0"/>
      <path id="Trazado_21" data-name="Trazado 21" d="M332.185,1.71l-.145,6.164-4.324.176-1.105,13.764-6.107.308V8.363l-4.324.229.172-6.851Z" transform="translate(-176.961 -0.935)" fill="#4966b0"/>
      <path id="Trazado_22" data-name="Trazado 22" d="M362.333,2.44l-1.6,19.775-6.125.317V2.845Z" transform="translate(-198.47 -1.344)" fill="#4966b0"/>
      <path id="Trazado_23" data-name="Trazado 23" d="M391.393,7.843a6.878,6.878,0,0,1-.44,2.5,6.2,6.2,0,0,1-1.154,1.9,7.045,7.045,0,0,1-1.722,1.378,10.843,10.843,0,0,1-2.113.92,13.88,13.88,0,0,1-2.329.524,18.955,18.955,0,0,1-2.365.181v6.763h-6.75v-6.6q0-3.28.044-6.649.026-1.761,0-3.523t.1-3.619a27.605,27.605,0,0,1,3.716-.828,26.612,26.612,0,0,1,3.835-.26,14.232,14.232,0,0,1,2.237.181,10.788,10.788,0,0,1,2.14.572,9.689,9.689,0,0,1,1.9.982,6.433,6.433,0,0,1,2.527,3.25A6.8,6.8,0,0,1,391.393,7.843Zm-6.446.5a1.907,1.907,0,0,0-.577-1.475,2.1,2.1,0,0,0-1.488-.528,3.9,3.9,0,0,0-.63.048c-.216.035-.44.075-.616.123l-.176,4.24a3.117,3.117,0,0,0,.392.031h.392a3.025,3.025,0,0,0,1.013-.176,2.642,2.642,0,0,0,.881-.5,2.52,2.52,0,0,0,.6-.771A2.2,2.2,0,0,0,384.947,8.341Z" transform="translate(-209.613 -0.274)" fill="#4966b0"/>
      <path id="Trazado_24" data-name="Trazado 24" d="M429.073,13.763a8.227,8.227,0,0,1-.687,3.478,6.973,6.973,0,0,1-1.889,2.475,8.013,8.013,0,0,1-2.8,1.479,11.642,11.642,0,0,1-3.452.493,7.4,7.4,0,0,1-1.559-.185c-.568-.128-1.14-.286-1.722-.476s-1.136-.392-1.673-.608-1.017-.44-1.431-.616l.638-5.984a10.07,10.07,0,0,0,2.734,1.123,11.937,11.937,0,0,0,2.955.383c.185,0,.409,0,.669-.022a3.2,3.2,0,0,0,.748-.128,1.724,1.724,0,0,0,.6-.326.8.8,0,0,0,.247-.625.687.687,0,0,0-.176-.471,1.278,1.278,0,0,0-.44-.321,2.743,2.743,0,0,0-.625-.189,6.326,6.326,0,0,0-.682-.092c-.22-.022-.44-.031-.625-.031h-.462a5.724,5.724,0,0,1-2.272-.44,5.138,5.138,0,0,1-1.761-1.211,5.549,5.549,0,0,1-1.141-1.845,6.4,6.4,0,0,1-.405-2.316,6.71,6.71,0,0,1,.687-3.082A7.2,7.2,0,0,1,416.4,1.918,8.366,8.366,0,0,1,419.038.456,9.516,9.516,0,0,1,422.12-.05q.713,0,1.466.053a13.3,13.3,0,0,1,1.5.181,14.389,14.389,0,0,1,1.462.335,8.336,8.336,0,0,1,1.347.506l-.55,5.9a17.132,17.132,0,0,0-2.069-.559,10.4,10.4,0,0,0-2.114-.225h-.484a3.1,3.1,0,0,0-.625.044c-.22.044-.44.062-.66.11a3.038,3.038,0,0,0-.594.194,1.219,1.219,0,0,0-.44.33.691.691,0,0,0-.145.476.7.7,0,0,0,.242.515,1.586,1.586,0,0,0,.581.308,4.059,4.059,0,0,0,.784.15c.286.031.568.048.85.053h.784a3.936,3.936,0,0,1,.594,0,5.9,5.9,0,0,1,2.091.493,4.813,4.813,0,0,1,1.572,1.118,4.726,4.726,0,0,1,.991,1.66,6.411,6.411,0,0,1,.37,2.175Z" transform="translate(-231.631 0.05)" fill="#4966b0"/>
    </g>
  </g>
</svg>
