<svg xmlns="http://www.w3.org/2000/svg" viewBox="0 0 448.41 58.93"><defs><style>.cls-1{fill:#00baef;}.cls-2{fill:#addbf6;}.cls-3{fill:#fff;}.cls-4{fill:#10014b;}.cls-5{fill:#4966b0;}</style></defs><g id="Layer_2" data-name="Layer 2"><g id="Layer_1-2" data-name="Layer 1"><rect class="cls-1" y="3.12" width="55.81" height="55.81" rx="5.51"/><rect class="cls-2" width="55.81" height="55.81" rx="5.51"/><path class="cls-3" d="M12.21,20.25l0-5.21L7.2,15,7.12,9l5-.16V4.14l6.17-.64.08,5.05,5.21-.15.08,6.8-5.21-.08.08,5.21Z"/><path class="cls-3" d="M33.79,13.77l-.08-6,12.85-.6L46.64,14Z"/><path class="cls-3" d="M31.21,24.26,23.45,37l7,11.34-8.31,2.59-4-7.72-4.22,8.15-8.59-3.1,7.32-11.54L6,25.33l9.11-2.19,3.27,7.2,3.46-7.2Z"/><path class="cls-3" d="M34,37.59l-.08-6L46.72,31l.08,6.8Zm0,7.95-.08-6H46.72l.08,6.8Z"/><path class="cls-4" d="M115.45,4l-3,48.4-15,.66.13-25.52L90.72,48.12h-5.8l-5.21-18.4-.07,21.37-15.23.46L65.07,6l17-.66,6.72,21.83L97.71,4Z"/><path class="cls-4" d="M158.87,49.24l-16.35,2.11-2-7.45H133l-1.65,7.45L114.56,49.7,127.68,5.78,146,4.86ZM139.35,33.81l-2.5-11.47-2.44,11.47Z"/><path class="cls-4" d="M190.52,4.93l-.33,14-9.82.39-2.51,31.26L164,51.28,164,20l-9.83.53L154.59,5Z"/><path class="cls-4" d="M223.56,4.53q-.19,3.1-.36,6.13c-.11,2-.25,4.07-.43,6.14l-14,.72-.33,4.16h9.83l-.73,10.22-9.89.33L207.34,37h14q-.19,3.63-.41,7.2c-.15,2.39-.27,4.78-.38,7.18l-28.42.66,1-47.55Z"/><path class="cls-4" d="M275.66,4l-3,48.4-15,.66.13-25.52-6.79,20.58h-5.81l-5.21-18.4-.06,21.37-15.23.46L225.28,6l16.94-.66L249,27.15l9-23.15Z"/><path class="cls-4" d="M319.08,49.24l-16.36,2.11-2-7.45h-7.52l-1.65,7.45L274.76,49.7,287.89,5.78l18.33-.92ZM299.56,33.81l-2.51-11.47-2.44,11.47Z"/><path class="cls-4" d="M350.73,4.93l-.33,14-9.82.39-2.51,31.26-13.91.72L324.22,20l-9.82.53L314.79,5Z"/><path class="cls-4" d="M370.35,5.65l-3.63,44.91-13.91.72V6.58Z"/><path class="cls-4" d="M411,20.36a15.82,15.82,0,0,1-.95,5.67,13.84,13.84,0,0,1-2.62,4.32,16,16,0,0,1-3.91,3.13,23.71,23.71,0,0,1-4.8,2.09,31.74,31.74,0,0,1-5.29,1.19,43.2,43.2,0,0,1-5.37.41V52.54H372.72q0-7.56,0-15t.1-15.1q.07-4,0-8c0-2.68,0-5.39.16-8.11A59.18,59.18,0,0,1,390.2,3.74a32.1,32.1,0,0,1,5.07.41,25.1,25.1,0,0,1,4.87,1.3,22,22,0,0,1,4.32,2.23,14.9,14.9,0,0,1,3.44,3.18,14.61,14.61,0,0,1,2.29,4.21A15.66,15.66,0,0,1,411,20.36Zm-14.64,1.12a4.33,4.33,0,0,0-1.3-3.35,4.79,4.79,0,0,0-3.38-1.2,10.17,10.17,0,0,0-1.43.11c-.5.08-1,.17-1.4.28l-.4,9.63a5.6,5.6,0,0,0,.89.07h.89a6.57,6.57,0,0,0,2.29-.4,6.05,6.05,0,0,0,2-1.14,5.62,5.62,0,0,0,1.36-1.74A4.94,4.94,0,0,0,396.39,21.48Z"/><path class="cls-4" d="M446.61,34.53a18.5,18.5,0,0,1-1.57,7.9,15.7,15.7,0,0,1-4.28,5.62,18.43,18.43,0,0,1-6.37,3.37,26.75,26.75,0,0,1-7.83,1.12,16.78,16.78,0,0,1-3.54-.43c-1.29-.29-2.59-.64-3.91-1.07s-2.59-.89-3.81-1.39-2.3-1-3.24-1.4l1.45-13.58a23,23,0,0,0,6.21,2.55,27.13,27.13,0,0,0,6.71.88c.42,0,.92,0,1.52-.05a7.85,7.85,0,0,0,1.7-.3A3.72,3.72,0,0,0,431,37a1.77,1.77,0,0,0,.56-1.42,1.55,1.55,0,0,0-.39-1.07,3,3,0,0,0-1-.73,6.77,6.77,0,0,0-1.42-.43c-.53-.09-1.05-.17-1.55-.21s-1-.07-1.42-.07h-1a13,13,0,0,1-5.16-1,11.54,11.54,0,0,1-4-2.75A12.34,12.34,0,0,1,413,25.15a14.48,14.48,0,0,1-.92-5.25,15.25,15.25,0,0,1,1.56-7,16.35,16.35,0,0,1,4.19-5.24,18.93,18.93,0,0,1,6-3.31,21.62,21.62,0,0,1,7-1.16q1.62,0,3.33.12a32.47,32.47,0,0,1,6.73,1.17A20.32,20.32,0,0,1,444,5.65L442.72,19a39.41,39.41,0,0,0-4.7-1.27,23.62,23.62,0,0,0-4.8-.51h-1.1c-.45,0-.92.05-1.42.1s-1,.14-1.5.25a5.94,5.94,0,0,0-1.35.45,2.48,2.48,0,0,0-1,.74,1.7,1.7,0,0,0,.22,2.26,3.74,3.74,0,0,0,1.32.69,9.07,9.07,0,0,0,1.78.34c.64.07,1.29.11,1.93.12s1.23,0,1.78,0a10.65,10.65,0,0,1,1.35.05A13.41,13.41,0,0,1,440,23.39a11,11,0,0,1,3.57,2.54,10.56,10.56,0,0,1,2.24,3.77A14.39,14.39,0,0,1,446.61,34.53Z"/><path class="cls-5" d="M117.25.79l-3,48.4-15,.66.13-25.52L92.52,44.91h-5.8l-5.21-18.4-.07,21.36-15.23.47.66-45.57,16.95-.66,6.72,21.83,9-23.15Z"/><path class="cls-5" d="M160.67,46l-16.35,2.11-2-7.45h-7.52l-1.64,7.45-16.82-1.65L129.48,2.57l18.33-.92ZM141.15,30.6l-2.5-11.48L136.21,30.6Z"/><path class="cls-5" d="M192.33,1.71l-.33,14-9.83.4-2.51,31.26-13.91.72.07-31.25-9.83.52.4-15.56Z"/><path class="cls-5" d="M225.36,1.32q-.2,3.11-.36,6.13c-.11,2-.25,4.07-.43,6.13l-14,.73-.33,4.15h9.83l-.73,10.22-9.89.33-.33,4.82h14q-.19,3.63-.41,7.2c-.15,2.39-.27,4.78-.38,7.17l-28.42.66L195,1.32Z"/><path class="cls-5" d="M277.46.79l-3,48.4-15,.66.13-25.52-6.79,20.58h-5.8l-5.21-18.4-.07,21.36-15.23.47.66-45.57L244,2.11l6.73,21.83,9-23.15Z"/><path class="cls-5" d="M320.88,46l-16.35,2.11-2-7.45H295l-1.65,7.45-16.81-1.65L289.69,2.57,308,1.65ZM301.36,30.6l-2.51-11.48L296.41,30.6Z"/><path class="cls-5" d="M352.53,1.71l-.33,14-9.82.4-2.51,31.26L326,48.07,326,16.82l-9.82.52.39-15.56Z"/><path class="cls-5" d="M372.15,2.44l-3.63,44.91-13.91.72V3.36Z"/><path class="cls-5" d="M412.84,17.14a15.62,15.62,0,0,1-1,5.68,14.08,14.08,0,0,1-2.62,4.32,16,16,0,0,1-3.91,3.13,24.62,24.62,0,0,1-4.8,2.09,31.52,31.52,0,0,1-5.29,1.19,43.05,43.05,0,0,1-5.37.41V49.32H374.52q0-7.55,0-15t.1-15.1q.06-4,0-8T374.85,3a62.69,62.69,0,0,1,8.44-1.88A60.44,60.44,0,0,1,392,.53a32.32,32.32,0,0,1,5.08.41,24.5,24.5,0,0,1,4.86,1.3,22,22,0,0,1,4.32,2.23A14.61,14.61,0,0,1,412,11.85,15.45,15.45,0,0,1,412.84,17.14ZM398.2,18.27a4.33,4.33,0,0,0-1.31-3.35,4.77,4.77,0,0,0-3.38-1.2,8.86,8.86,0,0,0-1.43.11c-.49.08-1,.17-1.4.28l-.4,9.63a7.08,7.08,0,0,0,.89.07h.89a6.87,6.87,0,0,0,2.3-.4,6,6,0,0,0,2-1.14,5.72,5.72,0,0,0,1.37-1.75A5,5,0,0,0,398.2,18.27Z"/><path class="cls-5" d="M448.41,31.32a18.69,18.69,0,0,1-1.56,7.9,15.84,15.84,0,0,1-4.29,5.62,18.2,18.2,0,0,1-6.36,3.36,26.44,26.44,0,0,1-7.84,1.12,16.8,16.8,0,0,1-3.54-.42c-1.29-.29-2.59-.65-3.91-1.08s-2.58-.89-3.8-1.38-2.31-1-3.25-1.4l1.45-13.59A22.87,22.87,0,0,0,421.52,34a27.11,27.11,0,0,0,6.71.87c.42,0,.93,0,1.52-.05a7.28,7.28,0,0,0,1.7-.29,3.92,3.92,0,0,0,1.37-.74,1.82,1.82,0,0,0,.56-1.42,1.56,1.56,0,0,0-.4-1.07,2.9,2.9,0,0,0-1-.73,6.23,6.23,0,0,0-1.42-.43,14.37,14.37,0,0,0-1.55-.21c-.5-.05-1-.07-1.42-.07h-1.05a13,13,0,0,1-5.16-1,11.67,11.67,0,0,1-4-2.75,12.6,12.6,0,0,1-2.59-4.19,14.54,14.54,0,0,1-.92-5.26,15.24,15.24,0,0,1,1.56-7,16.35,16.35,0,0,1,4.19-5.24,19,19,0,0,1,6-3.32,21.61,21.61,0,0,1,7-1.15q1.62,0,3.33.12a30.21,30.21,0,0,1,3.41.41,32.68,32.68,0,0,1,3.32.76,18.93,18.93,0,0,1,3.06,1.15l-1.25,13.39a38.9,38.9,0,0,0-4.7-1.27,23.62,23.62,0,0,0-4.8-.51h-1.1c-.45,0-.92,0-1.42.1s-1,.14-1.5.25a6.9,6.9,0,0,0-1.35.44,2.77,2.77,0,0,0-1,.75,1.57,1.57,0,0,0-.33,1.08,1.59,1.59,0,0,0,.55,1.17,3.6,3.6,0,0,0,1.32.7,9.22,9.22,0,0,0,1.78.34c.65.07,1.29.11,1.93.12h1.78a8.94,8.94,0,0,1,1.35,0,13.41,13.41,0,0,1,4.75,1.12,10.93,10.93,0,0,1,3.57,2.54,10.73,10.73,0,0,1,2.25,3.77A14.56,14.56,0,0,1,448.41,31.32Z"/></g></g></svg>