<svg xmlns="http://www.w3.org/2000/svg" width="164.393" height="171" viewBox="0 0 164.393 171">
  <g id="Grupo_387" data-name="Grupo 387" transform="translate(-951 -171)">
    <path id="Trazado_218" data-name="Trazado 218" d="M61.571,0A61.587,61.587,0,1,1,0,61.587,61.579,61.579,0,0,1,61.571,0Z" transform="translate(965.899 218.827)" fill="#4966b0"/>
    <g id="Grupo_378" data-name="Grupo 378" transform="translate(1024.065 171)">
      <g id="Grupo_375" data-name="Grupo 375" transform="translate(90.412 115.653)">
        <path id="Trazado_197" data-name="Trazado 197" d="M1865.365,729.592l-.137-.26q.389-.206.774-.417l.142.258Q1865.755,729.386,1865.365,729.592Z" transform="translate(-1865.227 -728.915)" fill="#fff"/>
      </g>
      <g id="Grupo_376" data-name="Grupo 376" transform="translate(0 0)">
        <path id="Trazado_198" data-name="Trazado 198" d="M1468.187,265.785c-.59,0-1.187-.012-1.775-.03l.01-.294c.585.018,1.179.028,1.766.03Zm1.775-.02-.008-.294c.588-.015,1.182-.038,1.766-.07l.016.294C1471.15,265.727,1470.553,265.75,1469.962,265.765Zm-5.323-.091c-.588-.035-1.184-.079-1.77-.131l.026-.293c.583.052,1.176.1,1.762.13Zm8.868-.1-.024-.293c.586-.048,1.178-.105,1.759-.17l.033.293C1474.691,265.468,1474.1,265.526,1473.507,265.575Zm-12.4-.213c-.584-.069-1.177-.147-1.76-.232l.042-.291c.581.085,1.17.163,1.752.231Zm15.933-.18-.041-.291c.582-.082,1.17-.173,1.746-.271l.049.29C1478.212,265.008,1477.621,265.1,1477.036,265.182Zm-19.446-.335c-.579-.1-1.166-.214-1.744-.333l.059-.288c.575.119,1.159.23,1.735.332Zm22.946-.26-.058-.289c.575-.115,1.156-.24,1.728-.371l.066.287C1481.7,264.345,1481.114,264.471,1480.537,264.587Zm-26.423-.457c-.576-.136-1.155-.282-1.721-.434l.076-.284c.563.151,1.14.3,1.713.432ZM1484,263.79l-.074-.285c.568-.148,1.141-.307,1.7-.471l.083.283C1485.143,263.482,1484.567,263.641,1484,263.79Zm-33.313-.578c-.563-.168-1.133-.347-1.694-.533l.092-.279c.558.185,1.125.363,1.686.53Zm36.721-.418-.091-.28c.557-.18,1.12-.372,1.673-.569l.1.277C1488.531,262.42,1487.965,262.613,1487.405,262.794Zm-40.1-.7c-.556-.2-1.115-.414-1.665-.632l.108-.273c.546.217,1.1.428,1.656.629Zm43.442-.493-.107-.274c.547-.213,1.1-.437,1.637-.665l.115.271C1491.853,261.164,1491.3,261.388,1490.75,261.6ZM1444,260.784c-.544-.234-1.091-.479-1.624-.727l.124-.267c.531.247,1.075.491,1.616.724Zm50.022-.565-.123-.268c.532-.243,1.069-.5,1.6-.758l.13.264C1495.094,259.718,1494.555,259.974,1494.02,260.219Zm-53.248-.936c-.526-.264-1.058-.539-1.579-.82l.139-.259c.519.279,1.047.553,1.571.816Zm-3.133-1.684c-.513-.3-1.027-.6-1.528-.909l.154-.251c.5.307,1.011.611,1.521.9Zm-3.029-1.861c-.493-.323-.989-.657-1.473-.995l.168-.241c.482.336.975.669,1.466.99Zm-2.916-2.032c-.474-.351-.949-.713-1.413-1.077l.182-.231c.461.362.935.723,1.406,1.072Zm-2.793-2.194c-.453-.377-.906-.766-1.348-1.156l.195-.221c.44.388.891.775,1.342,1.151Zm-2.662-2.35c-.431-.4-.861-.817-1.279-1.231l.207-.209c.416.412.844.824,1.273,1.225Zm-2.522-2.5c-.406-.425-.812-.863-1.207-1.3l.219-.2c.393.436.8.872,1.2,1.3Zm-2.375-2.637c-.381-.448-.761-.908-1.13-1.368l.229-.184c.367.457.745.915,1.124,1.361Zm-2.22-2.767c-.355-.469-.708-.95-1.05-1.429l.24-.171c.34.477.691.956,1.044,1.423Zm-2.057-2.888c-.328-.49-.653-.99-.965-1.487l.249-.157c.311.494.634.992.96,1.479Zm-1.887-3c-.3-.505-.593-1.023-.878-1.539l.258-.142c.283.513.577,1.028.874,1.531Zm-1.711-3.1c-.269-.522-.534-1.055-.788-1.586l.265-.127c.253.528.517,1.059.784,1.578Zm-1.529-3.193c-.239-.538-.472-1.086-.695-1.628l.272-.111c.221.539.454,1.084.691,1.62Zm-1.344-3.28c-.208-.551-.41-1.113-.6-1.67l.278-.1c.19.555.392,1.114.6,1.662Zm-1.154-3.357c-.175-.561-.344-1.134-.5-1.7l.283-.079c.159.566.327,1.136.5,1.694Zm-.957-3.419c-.142-.571-.278-1.153-.4-1.729l.288-.063c.125.573.26,1.152.4,1.72Zm-.758-3.468c-.109-.579-.211-1.168-.3-1.749l.29-.046c.092.578.194,1.164.3,1.741Zm-.557-3.506c-.075-.582-.143-1.176-.2-1.763l.293-.03c.059.585.126,1.176.2,1.755Zm-.354-3.532c-.042-.586-.076-1.182-.1-1.772l.294-.013c.025.588.059,1.181.1,1.764Zm-.152-3.544q-.006-.46-.007-.921,0-.428.006-.855l.294,0q-.006.424-.006.85,0,.459.007.917Zm.342-3.537-.294-.012c.025-.589.058-1.186.1-1.772l.294.021C1407.062,200.255,1407.028,200.849,1407,201.435Zm.248-3.524-.293-.029c.058-.588.126-1.181.2-1.764l.292.038C1407.377,196.735,1407.31,197.326,1407.252,197.911Zm.45-3.5-.291-.046c.092-.583.194-1.172.3-1.749l.289.054C1407.894,193.24,1407.793,193.826,1407.7,194.406Zm.65-3.473-.287-.063c.125-.576.26-1.158.4-1.729l.286.071C1408.612,189.782,1408.477,190.361,1408.352,190.934Zm.85-3.429-.283-.079c.159-.569.328-1.142.5-1.7l.281.087C1409.529,186.368,1409.361,186.938,1409.2,187.5Zm1.049-3.38-.278-.1c.191-.557.393-1.121.6-1.676l.276.1C1410.643,183.009,1410.442,183.57,1410.252,184.124Zm1.246-3.318-.272-.111c.223-.546.458-1.1.7-1.638l.269.119C1411.953,179.715,1411.72,180.263,1411.5,180.807Zm1.435-3.238-.266-.127c.255-.533.521-1.069.791-1.594l.262.134C1413.451,176.5,1413.186,177.038,1412.933,177.568Zm1.619-3.148-.258-.142c.285-.516.581-1.036.881-1.545l.253.149C1415.13,173.389,1414.835,173.906,1414.552,174.42Zm1.8-3.048-.249-.157c.315-.5.641-1,.968-1.491l.245.164C1416.987,170.375,1416.662,170.874,1416.349,171.372Zm1.969-2.939-.24-.171c.342-.479.7-.961,1.052-1.432l.235.178C1419.01,167.477,1418.658,167.956,1418.318,168.434Zm2.133-2.82-.229-.184c.369-.459.749-.92,1.132-1.369l.224.19C1421.2,164.7,1420.818,165.157,1420.451,165.614Zm2.291-2.692-.219-.2c.395-.437.8-.876,1.208-1.3l.213.2C1423.539,162.051,1423.135,162.486,1422.742,162.922Zm2.44-2.556-.207-.209c.418-.414.848-.827,1.279-1.23l.2.215C1426.027,159.543,1425.6,159.955,1425.182,160.366Zm2.581-2.411-.195-.221c.44-.388.894-.777,1.347-1.154l.188.226C1428.652,157.182,1428.2,157.568,1427.763,157.955Zm2.714-2.259-.182-.231c.463-.363.937-.725,1.411-1.075l.175.237C1431.409,154.974,1430.937,155.334,1430.477,155.7Zm2.837-2.1-.168-.241c.483-.337.978-.671,1.469-.992l.161.246C1434.287,152.929,1433.795,153.261,1433.314,153.6Zm2.951-1.932-.154-.251c.5-.309,1.015-.613,1.523-.906l.147.255C1437.275,151.054,1436.765,151.357,1436.265,151.664Zm3.056-1.759-.139-.259c.519-.279,1.047-.554,1.572-.816l.132.263C1440.363,149.354,1439.837,149.628,1439.321,149.9Zm56.12-1.021c-.527-.259-1.064-.514-1.6-.757l.122-.268c.535.244,1.074.5,1.6.76Zm-52.97-.559-.124-.267c.533-.248,1.077-.492,1.615-.724l.116.27C1443.542,147.836,1443,148.078,1442.471,148.325Zm49.756-.909c-.542-.228-1.093-.451-1.638-.663l.106-.274c.548.213,1.1.437,1.646.667Zm-46.521-.486-.109-.273c.546-.217,1.1-.43,1.659-.632l.1.276C1446.8,146.5,1446.249,146.715,1445.705,146.931Zm43.227-.793c-.552-.2-1.115-.387-1.673-.567l.09-.28c.561.181,1.127.373,1.682.57Zm-39.907-.416-.093-.279c.557-.185,1.126-.365,1.693-.535l.084.282C1450.146,145.359,1449.579,145.538,1449.025,145.722Zm36.545-.67c-.562-.163-1.135-.321-1.7-.469l.074-.285c.572.149,1.148.307,1.712.472Zm-33.16-.345-.076-.284c.568-.152,1.146-.3,1.721-.436l.068.286C1453.55,144.41,1452.974,144.556,1452.409,144.707Zm29.74-.544c-.571-.131-1.153-.255-1.728-.37l.057-.289c.578.115,1.163.24,1.737.372Zm-26.3-.273-.06-.288c.576-.119,1.163-.232,1.743-.335l.052.29C1457,143.659,1456.42,143.771,1455.846,143.89Zm22.837-.417c-.58-.1-1.168-.188-1.747-.269l.041-.292c.582.081,1.172.172,1.755.271Zm-19.358-.2-.043-.291c.582-.086,1.174-.165,1.76-.234l.035.292C1460.494,143.11,1459.9,143.188,1459.325,143.274Zm15.858-.289c-.585-.064-1.177-.121-1.759-.169l.024-.293c.585.048,1.18.1,1.768.169Zm-12.35-.127-.026-.293c.585-.052,1.18-.1,1.77-.133l.018.294C1464.009,142.762,1463.416,142.806,1462.833,142.858Zm8.827-.16c-.583-.031-1.177-.054-1.766-.068l.007-.294c.592.014,1.189.037,1.774.068Zm-5.3-.054-.009-.294c.588-.019,1.184-.03,1.774-.032v.294C1467.539,142.615,1466.945,142.625,1466.36,142.644Z" transform="translate(-1406.655 -142.318)" fill="#fff"/>
      </g>
      <g id="Grupo_377" data-name="Grupo 377" transform="translate(90.412 7.136)">
        <path id="Trazado_199" data-name="Trazado 199" d="M1866,179.189q-.385-.211-.775-.417l.138-.26q.391.207.779.419Z" transform="translate(-1865.228 -178.512)" fill="#fff"/>
      </g>
    </g>
    <g id="Grupo_379" data-name="Grupo 379" transform="translate(1025.579 226.895)">
      <path id="Trazado_200" data-name="Trazado 200" d="M1474.989,447.585l-55.279,4.457-4.06-5.4-1.318-16.363,55.279-4.457,4.06,5.4Zm-54.038,1.7,51.185-4.127-1.044-12.956-2.723-3.622-51.185,4.126,1.044,12.956Z" transform="translate(-1414.331 -425.82)" fill="#fff"/>
      <path id="Trazado_201" data-name="Trazado 201" d="M1479.608,432.815l.383,4.754-50.223,4.049.8,9.905-3.008.242,3.391,4.512,6.343-.511,46.889-3.78L1483,437.327Z" transform="translate(-1424.95 -431.436)" fill="#4966b0"/>
      <rect id="Rectángulo_77" data-name="Rectángulo 77" width="53.404" height="14.707" transform="matrix(0.997, -0.08, 0.08, 0.997, 1.426, 5.671)" fill="#b0bddd"/>
    </g>
    <g id="Grupo_380" data-name="Grupo 380" transform="translate(1052.064 281.523)">
      <path id="Trazado_202" data-name="Trazado 202" d="M1550.149,748.712l-1.482-6.594,39.215-39.225,11.6,11.608,1.482,6.594-39.215,39.225Zm46.922-32.88-9.189-9.191-36.311,36.32.994,4.421,9.189,9.191,36.31-36.32Z" transform="translate(-1548.667 -702.893)" fill="#fff"/>
      <path id="Trazado_203" data-name="Trazado 203" d="M1587.882,760.319l-39.215-39.225,1.482-6.594,11.6-11.608,39.215,39.225-1.482,6.594Zm-36.311-40.067,36.311,36.32,9.189-9.191.994-4.421-36.31-36.32-9.189,9.191Z" transform="translate(-1548.667 -702.893)" fill="#fff"/>
      <path id="Trazado_204" data-name="Trazado 204" d="M1604.192,778.1l1.238-5.507-3.372,3.373-10.93-10.933,9.8-9.8,4.5-4.5-1.238-5.507-2.134,2.134-7.025-7.027-14.3,14.305-14.3-14.305-7.025,7.027-2.134-2.134-1.238,5.507,4.5,4.5,9.8,9.8-10.93,10.933-3.372-3.373,1.238,5.507,10.4,10.4,13.064-13.067L1593.8,788.5Z" transform="translate(-1554.581 -732.948)" fill="#4966b0"/>
      <path id="Trazado_205" data-name="Trazado 205" d="M1605.43,750.168l-14.3-14.306,13.064-13.067-10.4-10.4-13.064,13.067L1567.668,712.4l-10.4,10.4,13.064,13.067-14.3,14.306,10.4,10.4,14.3-14.306,14.3,14.305Z" transform="translate(-1554.581 -710.522)" fill="#b0bddd"/>
    </g>
    <g id="Grupo_383" data-name="Grupo 383" transform="translate(969.946 256.69)">
      <g id="Grupo_381" data-name="Grupo 381" transform="translate(13.013)">
        <path id="Trazado_206" data-name="Trazado 206" d="M1220.713,585.466h0l-3.363-1.535,0,0a9.092,9.092,0,1,0-7.953,16.352h0l3.533,1.6a9.131,9.131,0,0,0,.95.43l.032.015v0a9.092,9.092,0,0,0,6.8-16.863Z" transform="translate(-1203.011 -581.784)" fill="#d16b42"/>
        <path id="Trazado_207" data-name="Trazado 207" d="M1214.807,598.963a10.217,10.217,0,0,1-6.1-.342,1.188,1.188,0,0,1-.131-.05h0a10.347,10.347,0,0,1-1.011-.458l-3.5-1.586-.02-.009a10.285,10.285,0,1,1,8.926-18.531l.031.014,3.363,1.535.011.005a10.286,10.286,0,0,1-1.562,19.423Zm-5.326-2.6.01,0a7.9,7.9,0,0,0,5.9-14.652l-.062-.029-3.258-1.487c-.035-.014-.071-.029-.1-.046a7.9,7.9,0,1,0-6.919,14.2l3.523,1.595.062.03a7.98,7.98,0,0,0,.826.374Z" transform="translate(-1198.161 -576.938)" fill="#fff"/>
      </g>
      <path id="Trazado_208" data-name="Trazado 208" d="M1194.84,691.212l-53.788,13.512-4.9-4.658-4-15.922,53.788-13.512,4.9,4.658ZM1141.822,701.8l49.8-12.512-3.166-12.607-3.282-3.123-49.8,12.511,3.166,12.607Z" transform="translate(-1132.16 -652.159)" fill="#fff"/>
      <path id="Trazado_209" data-name="Trazado 209" d="M1206.692,678.05l1.162,4.626-48.869,12.276,2.42,9.638-2.927.735,4.089,3.891,6.172-1.55,45.624-11.461-3.582-14.264Z" transform="translate(-1153.289 -658.115)" fill="#4966b0"/>
      <path id="Trazado_219" data-name="Trazado 219" d="M0,0H53.405V14.707H0Z" transform="translate(1.606 32.947) rotate(-14.102)" fill="#b0bddd"/>
      <path id="Trazado_210" data-name="Trazado 210" d="M1236.418,589.36h0l-3.363-1.535.54.839a9.093,9.093,0,0,0-7.207,15.452l-1.284.065,3.533,1.6a9.118,9.118,0,0,0,.95.43l.032.015v0a9.092,9.092,0,0,0,6.8-16.863Z" transform="translate(-1205.703 -585.678)" fill="#4966b0"/>
      <ellipse id="Elipse_29" data-name="Elipse 29" cx="9.091" cy="9.094" rx="9.091" ry="9.094" transform="translate(14.206 1.192)" fill="#b0bddd"/>
      <g id="Grupo_382" data-name="Grupo 382" transform="translate(25.402 49.342)">
        <path id="Trazado_211" data-name="Trazado 211" d="M1283.55,835.727h0l-3.363-1.535,0,0a9.092,9.092,0,1,0-7.953,16.352h0l3.533,1.6a9.167,9.167,0,0,0,.95.43l.032.014v0a9.092,9.092,0,0,0,6.8-16.863Z" transform="translate(-1265.848 -832.045)" fill="#d16b42"/>
        <path id="Trazado_212" data-name="Trazado 212" d="M1277.644,849.224a10.217,10.217,0,0,1-6.1-.342,1.177,1.177,0,0,1-.132-.05h0a10.393,10.393,0,0,1-1.011-.458l-3.5-1.586-.02-.009a10.285,10.285,0,1,1,8.926-18.531l.031.014,3.363,1.535.011.005a10.286,10.286,0,0,1-1.562,19.423Zm-5.326-2.6.01,0a7.9,7.9,0,0,0,5.9-14.652l-.062-.029-3.258-1.487c-.036-.014-.071-.029-.105-.046a7.9,7.9,0,1,0-6.919,14.2l3.523,1.6.062.03a7.991,7.991,0,0,0,.826.374Z" transform="translate(-1260.998 -827.199)" fill="#fff"/>
      </g>
      <path id="Trazado_213" data-name="Trazado 213" d="M1299.255,839.621h0l-3.363-1.535.54.839a9.094,9.094,0,0,0-7.207,15.452l-1.284.065,3.533,1.6a9.169,9.169,0,0,0,.95.43l.032.014v0a9.092,9.092,0,0,0,6.8-16.862Z" transform="translate(-1256.151 -786.597)" fill="#4966b0"/>
      <ellipse id="Elipse_30" data-name="Elipse 30" cx="9.094" cy="9.091" rx="9.094" ry="9.091" transform="translate(26.584 68.71) rotate(-89.933)" fill="#b0bddd"/>
    </g>
    <g id="Grupo_384" data-name="Grupo 384" transform="translate(951 185.416)">
      <path id="Trazado_214" data-name="Trazado 214" d="M1135.483,274.523l-5.709-3.614V215.437h16.412l5.709,3.614v55.472Zm9.934-56.437h-12.995v51.364l3.828,2.423h13V220.51Z" transform="translate(-1111.299 -215.437)" fill="#fff"/>
      <path id="Trazado_215" data-name="Trazado 215" d="M1095.139,331.294h-55.458l-3.613-5.711V309.167h55.458l3.613,5.711Zm-54-2.65h51.351v-13l-2.423-3.829h-51.35v13Z" transform="translate(-1036.068 -290.687)" fill="#fff"/>
      <path id="Trazado_216" data-name="Trazado 216" d="M1099.208,245.407l-3.018-4.77v4.77h-15.457V225.176l-4.769-3.019v3.019h-9.935v20.231H1045.8v9.937h-3.018l3.018,4.77h20.226v15.461h-4.769l4.769,3.019h14.7v-18.48h18.475Z" transform="translate(-1041.461 -220.832)" fill="#4966b0"/>
      <path id="Trazado_217" data-name="Trazado 217" d="M1096.19,240.637h-20.226v-18.48h-14.7v18.48h-18.475v14.707h18.475v20.231h14.7V255.344h20.226Z" transform="translate(-1041.461 -220.832)" fill="#b0bddd"/>
    </g>
  </g>
</svg>
